<svg width="71" height="72" viewBox="0 0 71 72" fill="none" xmlns="http://www.w3.org/2000/svg">
<path d="M61.766 34.4245C61.776 38.2904 60.8744 42.1041 59.1344 45.5548C57.0714 49.6899 53.8998 53.1679 49.975 55.5993C46.0502 58.0307 41.5272 59.3195 36.9125 59.3213C33.0532 59.3314 29.2462 58.4281 25.8015 56.6852L9.13501 62.2503L14.6905 45.5548C12.9506 42.1041 12.0489 38.2904 12.059 34.4245C12.0607 29.8018 13.3473 25.2708 15.7745 21.3392C18.2016 17.4075 21.6736 14.2304 25.8015 12.1638C29.2462 10.4208 33.0532 9.51759 36.9125 9.52767H38.3744C44.469 9.86449 50.2253 12.4414 54.5413 16.7649C58.8574 21.0885 61.4298 26.8548 61.766 32.96V34.4245Z" stroke="#F1F1F1" stroke-width="2" stroke-linecap="round" stroke-linejoin="round"/>
</svg>
