<svg width="65" height="65" viewBox="0 0 65 65" fill="none" xmlns="http://www.w3.org/2000/svg">
<path d="M32.7695 59.4633C47.5967 59.4633 59.6166 47.4225 59.6166 32.5694C59.6166 17.7163 47.5967 5.67554 32.7695 5.67554C17.9422 5.67554 5.92236 17.7163 5.92236 32.5694C5.92236 47.4225 17.9422 59.4633 32.7695 59.4633Z" stroke="#F1F1F1" stroke-width="2" stroke-linecap="round" stroke-linejoin="round"/>
<path d="M32.7694 48.7058C41.6657 48.7058 48.8777 41.4813 48.8777 32.5694C48.8777 23.6576 41.6657 16.4331 32.7694 16.4331C23.873 16.4331 16.6611 23.6576 16.6611 32.5694C16.6611 41.4813 23.873 48.7058 32.7694 48.7058Z" stroke="#F1F1F1" stroke-width="2" stroke-linecap="round" stroke-linejoin="round"/>
<path d="M32.7696 37.9482C35.735 37.9482 38.139 35.5401 38.139 32.5694C38.139 29.5988 35.735 27.1907 32.7696 27.1907C29.8041 27.1907 27.4001 29.5988 27.4001 32.5694C27.4001 35.5401 29.8041 37.9482 32.7696 37.9482Z" stroke="#F1F1F1" stroke-width="2" stroke-linecap="round" stroke-linejoin="round"/>
</svg>
