<svg width="65" height="65" viewBox="0 0 65 65" fill="none" xmlns="http://www.w3.org/2000/svg">
<path d="M45.6379 56.3763V51.0071C45.6379 48.1591 44.5065 45.4278 42.4927 43.414C40.4789 41.4002 37.7476 40.2688 34.8996 40.2688H13.4229C10.5749 40.2688 7.84358 41.4002 5.82976 43.414C3.81593 45.4278 2.68457 48.1591 2.68457 51.0071V56.3763" stroke="#F1F1F1" stroke-width="2" stroke-linecap="round" stroke-linejoin="round"/>
<path d="M24.1612 29.5304C30.0918 29.5304 34.8995 24.7227 34.8995 18.792C34.8995 12.8614 30.0918 8.05371 24.1612 8.05371C18.2306 8.05371 13.4229 12.8614 13.4229 18.792C13.4229 24.7227 18.2306 29.5304 24.1612 29.5304Z" stroke="#F1F1F1" stroke-width="2" stroke-linecap="round" stroke-linejoin="round"/>
<path d="M61.7454 56.3762V51.007C61.7436 48.6277 60.9517 46.3164 59.494 44.436C58.0363 42.5556 55.9954 41.2125 53.6917 40.6177" stroke="#F1F1F1" stroke-width="2" stroke-linecap="round" stroke-linejoin="round"/>
<path d="M42.9534 8.40283C45.2632 8.99425 47.3105 10.3376 48.7726 12.2211C50.2346 14.1047 51.0282 16.4212 51.0282 18.8056C51.0282 21.19 50.2346 23.5065 48.7726 25.39C47.3105 27.2736 45.2632 28.6169 42.9534 29.2084" stroke="#F1F1F1" stroke-width="2" stroke-linecap="round" stroke-linejoin="round"/>
</svg>
