<svg width="102" height="72" viewBox="0 0 102 72" fill="none" xmlns="http://www.w3.org/2000/svg">
<path d="M1.87642 27V0.818181H11.2088C13.2372 0.818181 14.9205 1.16761 16.2585 1.86648C17.6051 2.56534 18.6108 3.53267 19.2756 4.76847C19.9403 5.99574 20.2727 7.41477 20.2727 9.02557C20.2727 10.6278 19.9361 12.0384 19.2628 13.2571C18.598 14.4673 17.5923 15.4091 16.2457 16.0824C14.9077 16.7557 13.2244 17.0923 11.196 17.0923H4.12642V13.6918H10.8381C12.1165 13.6918 13.1563 13.5085 13.9574 13.142C14.767 12.7756 15.3594 12.2429 15.7344 11.544C16.1094 10.8452 16.2969 10.0057 16.2969 9.02557C16.2969 8.03693 16.1051 7.1804 15.7216 6.45597C15.3466 5.73153 14.7543 5.17756 13.9446 4.79403C13.1435 4.40199 12.0909 4.20597 10.7869 4.20597H5.8267V27H1.87642ZM14.8011 15.1875L21.2699 27H16.7699L10.429 15.1875H14.8011ZM29.0298 0.818181V27H25.0795V0.818181H29.0298ZM37.071 0.818181L44.358 22.142H44.652L51.9389 0.818181H56.2088L46.7869 27H42.223L32.8011 0.818181H37.071ZM59.9897 27V0.818181H76.4045V4.21875H63.94V12.196H75.5479V15.5838H63.94V23.5994H76.5579V27H59.9897ZM81.6811 27V0.818181H91.0135C93.0419 0.818181 94.7251 1.16761 96.0632 1.86648C97.4098 2.56534 98.4155 3.53267 99.0803 4.76847C99.745 5.99574 100.077 7.41477 100.077 9.02557C100.077 10.6278 99.7408 12.0384 99.0675 13.2571C98.4027 14.4673 97.397 15.4091 96.0504 16.0824C94.7124 16.7557 93.0291 17.0923 91.0007 17.0923H83.9311V13.6918H90.6428C91.9212 13.6918 92.9609 13.5085 93.7621 13.142C94.5717 12.7756 95.1641 12.2429 95.5391 11.544C95.9141 10.8452 96.1016 10.0057 96.1016 9.02557C96.1016 8.03693 95.9098 7.1804 95.5263 6.45597C95.1513 5.73153 94.5589 5.17756 93.7493 4.79403C92.9482 4.40199 91.8956 4.20597 90.5916 4.20597H85.6314V27H81.6811ZM94.6058 15.1875L101.075 27H96.5746L90.2337 15.1875H94.6058ZM0.585227 48.2188V44.8182H20.848V48.2188H12.679V71H8.74148V48.2188H0.585227ZM25.3435 71H21.1504L30.5722 44.8182H35.1362L44.558 71H40.3648L32.9629 49.5739H32.7583L25.3435 71ZM26.0467 60.7472H39.6489V64.071H26.0467V60.7472ZM49.2389 71V44.8182H53.1892V67.5994H65.0528V71H49.2389ZM70.4592 71V44.8182H86.874V48.2188H74.4095V56.196H86.0175V59.5838H74.4095V67.5994H87.0274V71H70.4592ZM95.2623 71.2429C94.5634 71.2429 93.9626 70.9957 93.4597 70.5014C92.9569 69.9986 92.7055 69.3935 92.7055 68.6861C92.7055 67.9872 92.9569 67.3906 93.4597 66.8963C93.9626 66.3935 94.5634 66.142 95.2623 66.142C95.9611 66.142 96.562 66.3935 97.0648 66.8963C97.5677 67.3906 97.8191 67.9872 97.8191 68.6861C97.8191 69.1548 97.6998 69.5852 97.4611 69.9773C97.231 70.3608 96.9242 70.6676 96.5407 70.8977C96.1572 71.1278 95.731 71.2429 95.2623 71.2429Z" fill="#F1F1F1"/>
</svg>
