<svg width="335" height="48" viewBox="0 0 335 48" fill="none" xmlns="http://www.w3.org/2000/svg">
<path d="M0.12 47V1.56H19.896C21.944 1.56 23.8213 1.98666 25.528 2.84C27.2347 3.69333 28.7067 4.824 29.944 6.232C31.224 7.64 32.2053 9.21866 32.888 10.968C33.6133 12.7173 33.976 14.5093 33.976 16.344C33.976 18.3493 33.6133 20.2693 32.888 22.104C32.1627 23.9387 31.1173 25.5173 29.752 26.84C28.4293 28.1627 26.872 29.1227 25.08 29.72L35.768 47H27.704L17.848 31.192H7.288V47H0.12ZM7.288 24.856H19.832C21.1547 24.856 22.328 24.472 23.352 23.704C24.376 22.936 25.1867 21.912 25.784 20.632C26.3813 19.3093 26.68 17.88 26.68 16.344C26.68 14.7653 26.3387 13.3573 25.656 12.12C24.9733 10.84 24.0773 9.816 22.968 9.048C21.9013 8.28 20.728 7.896 19.448 7.896H7.288V24.856ZM41.224 47V13.528H48.264V47H41.224ZM41.224 8.024V0.279999H48.264V8.024H41.224ZM66.068 47L53.332 13.528H60.628L70.164 40.472L79.7 13.528H86.484L73.748 47H66.068ZM105.58 47.64C102.977 47.64 100.609 47.192 98.4755 46.296C96.3848 45.3573 94.5715 44.0987 93.0355 42.52C91.4995 40.8987 90.3048 39.064 89.4515 37.016C88.6408 34.9253 88.2355 32.7067 88.2355 30.36C88.2355 27.2027 88.9608 24.3227 90.4115 21.72C91.8622 19.0747 93.8888 16.9627 96.4915 15.384C99.0942 13.7627 102.145 12.952 105.644 12.952C109.142 12.952 112.15 13.7627 114.668 15.384C117.228 16.9627 119.212 19.0533 120.62 21.656C122.028 24.2587 122.732 27.0533 122.732 30.04C122.732 30.552 122.71 31.0427 122.668 31.512C122.625 31.9387 122.582 32.3013 122.54 32.6H95.7235C95.8515 34.5627 96.3848 36.2907 97.3235 37.784C98.3048 39.2347 99.5422 40.3867 101.036 41.24C102.529 42.0507 104.129 42.456 105.836 42.456C107.713 42.456 109.484 41.9867 111.148 41.048C112.854 40.1093 114.006 38.872 114.604 37.336L120.62 39.064C119.894 40.6853 118.785 42.1573 117.292 43.48C115.841 44.76 114.113 45.784 112.108 46.552C110.102 47.2773 107.926 47.64 105.58 47.64ZM95.5315 27.928H115.756C115.628 26.008 115.073 24.3227 114.092 22.872C113.153 21.3787 111.937 20.2267 110.444 19.416C108.993 18.5627 107.372 18.136 105.58 18.136C103.83 18.136 102.209 18.5627 100.716 19.416C99.2648 20.2267 98.0702 21.3787 97.1315 22.872C96.1928 24.3227 95.6595 26.008 95.5315 27.928ZM147.29 19.608C144.559 19.6507 142.127 20.2693 139.994 21.464C137.903 22.6587 136.41 24.344 135.514 26.52V47H128.474V13.528H135.002V21.016C136.154 18.712 137.669 16.8773 139.546 15.512C141.423 14.104 143.407 13.336 145.498 13.208C145.925 13.208 146.266 13.208 146.522 13.208C146.821 13.208 147.077 13.2293 147.29 13.272V19.608ZM171.036 45.272C170.438 45.5707 169.692 45.8907 168.796 46.232C167.9 46.5733 166.876 46.872 165.724 47.128C164.614 47.384 163.462 47.512 162.268 47.512C160.817 47.512 159.473 47.256 158.236 46.744C156.998 46.232 155.996 45.4213 155.228 44.312C154.502 43.16 154.14 41.688 154.14 39.896V18.968H149.724V13.528H154.14V2.52H161.18V13.528H168.476V18.968H161.18V37.656C161.265 38.808 161.628 39.6613 162.268 40.216C162.95 40.7707 163.782 41.048 164.764 41.048C165.745 41.048 166.684 40.8773 167.58 40.536C168.476 40.1947 169.137 39.9173 169.564 39.704L171.036 45.272ZM173.48 37.208C173.48 35.0747 174.077 33.2187 175.272 31.64C176.509 30.0187 178.194 28.7813 180.328 27.928C182.461 27.032 184.936 26.584 187.752 26.584C189.245 26.584 190.76 26.6907 192.296 26.904C193.874 27.1173 195.261 27.4587 196.456 27.928V25.816C196.456 23.4693 195.752 21.6347 194.344 20.312C192.936 18.9893 190.909 18.328 188.264 18.328C186.386 18.328 184.616 18.6693 182.952 19.352C181.288 19.992 179.517 20.9093 177.64 22.104L175.272 17.368C177.49 15.8747 179.709 14.7653 181.928 14.04C184.189 13.3147 186.557 12.952 189.032 12.952C193.512 12.952 197.032 14.1467 199.592 16.536C202.194 18.8827 203.496 22.232 203.496 26.584V39.064C203.496 39.8747 203.624 40.4507 203.88 40.792C204.178 41.1333 204.669 41.3253 205.352 41.368V47C204.712 47.128 204.136 47.2133 203.624 47.256C203.112 47.2987 202.685 47.32 202.344 47.32C200.85 47.32 199.72 46.9573 198.952 46.232C198.184 45.5067 197.736 44.6533 197.608 43.672L197.416 41.752C195.965 43.6293 194.109 45.08 191.848 46.104C189.586 47.128 187.304 47.64 185 47.64C182.781 47.64 180.797 47.192 179.048 46.296C177.298 45.3573 175.933 44.0987 174.952 42.52C173.97 40.9413 173.48 39.1707 173.48 37.208ZM194.792 39.256C195.304 38.7013 195.709 38.1467 196.008 37.592C196.306 37.0373 196.456 36.5467 196.456 36.12V32.28C195.261 31.8107 194.002 31.4693 192.68 31.256C191.357 31 190.056 30.872 188.776 30.872C186.216 30.872 184.125 31.384 182.504 32.408C180.925 33.432 180.135 34.84 180.135 36.632C180.135 37.6133 180.392 38.552 180.904 39.448C181.458 40.344 182.226 41.0693 183.208 41.624C184.232 42.1787 185.49 42.456 186.984 42.456C188.52 42.456 189.992 42.1573 191.4 41.56C192.808 40.9627 193.938 40.1947 194.792 39.256ZM212.101 0.279999H219.141V37.336C219.141 39.0427 219.397 40.1307 219.909 40.6C220.421 41.0693 221.061 41.304 221.829 41.304C222.682 41.304 223.471 41.2187 224.197 41.048C224.965 40.8773 225.626 40.664 226.181 40.408L227.205 45.976C226.181 46.4027 224.965 46.7653 223.557 47.064C222.149 47.3627 220.89 47.512 219.781 47.512C217.391 47.512 215.514 46.8507 214.149 45.528C212.783 44.1627 212.101 42.2853 212.101 39.896V0.279999ZM246.455 47.64C243.852 47.64 241.484 47.192 239.351 46.296C237.26 45.3573 235.447 44.0987 233.911 42.52C232.375 40.8987 231.18 39.064 230.327 37.016C229.516 34.9253 229.111 32.7067 229.111 30.36C229.111 27.2027 229.836 24.3227 231.286 21.72C232.737 19.0747 234.764 16.9627 237.367 15.384C239.969 13.7627 243.02 12.952 246.519 12.952C250.017 12.952 253.025 13.7627 255.543 15.384C258.103 16.9627 260.087 19.0533 261.495 21.656C262.903 24.2587 263.607 27.0533 263.607 30.04C263.607 30.552 263.585 31.0427 263.543 31.512C263.5 31.9387 263.457 32.3013 263.415 32.6H236.599C236.727 34.5627 237.26 36.2907 238.199 37.784C239.18 39.2347 240.417 40.3867 241.911 41.24C243.404 42.0507 245.004 42.456 246.711 42.456C248.588 42.456 250.359 41.9867 252.023 41.048C253.729 40.1093 254.881 38.872 255.479 37.336L261.495 39.064C260.769 40.6853 259.66 42.1573 258.167 43.48C256.716 44.76 254.988 45.784 252.983 46.552C250.977 47.2773 248.801 47.64 246.455 47.64ZM236.407 27.928H256.631C256.503 26.008 255.948 24.3227 254.967 22.872C254.028 21.3787 252.812 20.2267 251.319 19.416C249.868 18.5627 248.247 18.136 246.455 18.136C244.705 18.136 243.084 18.5627 241.591 19.416C240.14 20.2267 238.945 21.3787 238.007 22.872C237.068 24.3227 236.535 26.008 236.407 27.928ZM297.178 1.56H303.962L321.626 47H314.074L309.274 34.648H291.738L287.002 47H279.386L297.178 1.56ZM307.866 29.336L300.57 9.432L293.018 29.336H307.866ZM327.245 47V1.56H334.413V47H327.245Z" fill="url(#paint0_linear_1_15)"/>
<defs>
<linearGradient id="paint0_linear_1_15" x1="-5" y1="-13" x2="325.41" y2="103.411" gradientUnits="userSpaceOnUse">
<stop stop-color="#30B2CE"/>
<stop offset="1" stop-color="#F8A678"/>
</linearGradient>
</defs>
</svg>
