<svg width="931" height="163" viewBox="0 0 931 163" fill="none" xmlns="http://www.w3.org/2000/svg">
<path d="M10.936 24.1601C9.33605 24.1601 7.88538 23.8401 6.58405 23.2001C5.28271 22.5601 4.15205 21.6961 3.19205 20.6081C2.25338 19.4987 1.52805 18.2614 1.01605 16.8961C0.504047 15.5094 0.248047 14.0907 0.248047 12.6401C0.248047 11.1254 0.514714 9.6854 1.04805 8.32007C1.60271 6.9334 2.36005 5.70674 3.32005 4.64007C4.30138 3.55207 5.44271 2.69873 6.74405 2.08007C8.04538 1.44007 9.46405 1.12007 11 1.12007C12.6 1.12007 14.0507 1.45073 15.352 2.11207C16.6534 2.7734 17.7734 3.65873 18.712 4.76807C19.6507 5.8774 20.376 7.11473 20.888 8.48007C21.4 9.8454 21.656 11.2427 21.656 12.6721C21.656 14.1867 21.3894 15.6374 20.856 17.0241C20.3227 18.3894 19.5654 19.6161 18.584 20.7041C17.624 21.7707 16.4934 22.6134 15.192 23.2321C13.8907 23.8507 12.472 24.1601 10.936 24.1601ZM3.16005 12.6401C3.16005 13.7921 3.34138 14.9121 3.70405 16.0001C4.08805 17.0667 4.62138 18.0161 5.30405 18.8481C5.98671 19.6801 6.80805 20.3414 7.76805 20.8321C8.72805 21.3227 9.79471 21.5681 10.968 21.5681C12.184 21.5681 13.272 21.3121 14.232 20.8001C15.192 20.2881 16.0027 19.6054 16.664 18.7521C17.3467 17.8987 17.8587 16.9387 18.2 15.8721C18.5627 14.8054 18.744 13.7281 18.744 12.6401C18.744 11.4881 18.552 10.3787 18.168 9.31207C17.8054 8.2454 17.272 7.29607 16.568 6.46407C15.8854 5.61073 15.064 4.9494 14.104 4.48007C13.1654 3.9894 12.12 3.74407 10.968 3.74407C9.75205 3.74407 8.66405 4.00007 7.70405 4.51207C6.74405 5.00273 5.92271 5.67473 5.24005 6.52807C4.57871 7.3814 4.06671 8.3414 3.70405 9.40807C3.34138 10.4534 3.16005 11.5307 3.16005 12.6401Z" fill="#F1F1F1"/>
<path d="M25.0495 17.3121V7.29607H27.8655V16.7681C27.8655 18.4747 28.1642 19.7547 28.7615 20.6081C29.3589 21.4614 30.2442 21.8881 31.4175 21.8881C32.1855 21.8881 32.9215 21.7281 33.6255 21.4081C34.3509 21.0667 35.0015 20.5867 35.5775 19.9681C36.1535 19.3494 36.6015 18.6134 36.9215 17.7601V7.29607H39.7375V20.8001C39.7375 21.1414 39.8015 21.3974 39.9295 21.5681C40.0789 21.7174 40.3135 21.8027 40.6335 21.8241V24.0001C40.3135 24.0427 40.0575 24.0641 39.8655 24.0641C39.6949 24.0854 39.5242 24.0961 39.3535 24.0961C38.8202 24.0961 38.3615 23.9361 37.9775 23.6161C37.5935 23.2747 37.3909 22.8587 37.3695 22.3681L37.3055 20.4161C36.5802 21.6534 35.5989 22.6134 34.3615 23.2961C33.1455 23.9787 31.8122 24.3201 30.3615 24.3201C28.6122 24.3201 27.2895 23.7334 26.3935 22.5601C25.4975 21.3654 25.0495 19.6161 25.0495 17.3121Z" fill="#F1F1F1"/>
<path d="M53.2603 9.76007C51.8523 9.7814 50.6043 10.1441 49.5163 10.8481C48.4496 11.5307 47.6923 12.4801 47.2443 13.6961V24.0001H44.4283V7.29607H47.0523V11.1681C47.6283 10.0161 48.3856 9.08807 49.3243 8.38407C50.2843 7.65873 51.287 7.2534 52.3323 7.16807C52.5456 7.16807 52.727 7.16807 52.8763 7.16807C53.0256 7.16807 53.1536 7.17873 53.2603 7.20007V9.76007Z" fill="#F1F1F1"/>
<path d="M62.373 12.4801C62.373 11.0934 62.6077 9.73873 63.077 8.41607C63.5677 7.07207 64.2717 5.85607 65.189 4.76807C66.1277 3.65873 67.269 2.78407 68.613 2.14407C69.957 1.48273 71.4824 1.15207 73.189 1.15207C75.2157 1.15207 76.9544 1.6214 78.405 2.56007C79.8557 3.4774 80.933 4.6614 81.637 6.11207L79.3651 7.58407C78.9171 6.62407 78.341 5.86673 77.637 5.31207C76.9544 4.73607 76.2077 4.33073 75.397 4.09607C74.6077 3.8614 73.8291 3.74407 73.0611 3.74407C71.8024 3.74407 70.6824 4.00007 69.701 4.51207C68.741 5.02407 67.9304 5.70673 67.2691 6.56007C66.6077 7.4134 66.1064 8.3734 65.765 9.44007C65.445 10.4854 65.285 11.5414 65.285 12.6081C65.285 13.7814 65.477 14.9121 65.861 16.0001C66.2664 17.0881 66.821 18.0481 67.525 18.8801C68.229 19.7121 69.061 20.3734 70.021 20.8641C70.981 21.3547 72.0264 21.6001 73.1571 21.6001C73.9464 21.6001 74.7571 21.4614 75.5891 21.1841C76.4211 20.9067 77.1997 20.4801 77.925 19.9041C78.6504 19.3067 79.2264 18.5387 79.653 17.6001L82.053 18.9121C81.5837 20.0427 80.8584 21.0027 79.877 21.7921C78.8957 22.5814 77.797 23.1787 76.581 23.5841C75.3864 23.9894 74.2024 24.1921 73.029 24.1921C71.4717 24.1921 70.0424 23.8614 68.7411 23.2001C67.4397 22.5174 66.309 21.6214 65.349 20.5121C64.4104 19.3814 63.6744 18.1227 63.141 16.7361C62.629 15.3281 62.373 13.9094 62.373 12.4801Z" fill="#F1F1F1"/>
<path d="M85.2735 0.640068H88.0895V19.6801C88.0895 20.5974 88.2175 21.1627 88.4735 21.3761C88.7295 21.5894 89.0389 21.6961 89.4016 21.6961C89.8496 21.6961 90.2762 21.6534 90.6815 21.5681C91.0869 21.4614 91.4282 21.3547 91.7056 21.2481L92.1535 23.5521C91.6842 23.7441 91.1295 23.9041 90.4895 24.0321C89.8495 24.1601 89.2842 24.2241 88.7935 24.2241C87.7055 24.2241 86.8415 23.9147 86.2015 23.2961C85.5829 22.6774 85.2735 21.8134 85.2735 20.7041V0.640068Z" fill="#F1F1F1"/>
<path d="M94.3658 24.0001V7.29607H97.1818V24.0001H94.3658ZM94.3658 4.16007V0.640068H97.1818V4.16007H94.3658Z" fill="#F1F1F1"/>
<path d="M109.133 24.3201C107.874 24.3201 106.722 24.0961 105.677 23.6481C104.653 23.1787 103.757 22.5494 102.989 21.7601C102.242 20.9494 101.655 20.0214 101.229 18.9761C100.823 17.9307 100.621 16.8214 100.621 15.6481C100.621 14.0694 100.983 12.6294 101.709 11.3281C102.434 10.0267 103.437 8.9814 104.717 8.19207C106.018 7.40273 107.501 7.00807 109.165 7.00807C110.85 7.00807 112.311 7.4134 113.549 8.22407C114.807 9.0134 115.778 10.0587 116.461 11.3601C117.165 12.6401 117.517 14.0267 117.517 15.5201C117.517 15.7334 117.506 15.9467 117.485 16.1601C117.485 16.3521 117.474 16.5014 117.453 16.6081H103.597C103.682 17.6961 103.981 18.6667 104.493 19.5201C105.026 20.3521 105.709 21.0134 106.541 21.5041C107.373 21.9734 108.269 22.2081 109.229 22.2081C110.253 22.2081 111.213 21.9521 112.109 21.4401C113.026 20.9281 113.655 20.2561 113.997 19.4241L116.429 20.0961C116.066 20.9067 115.522 21.6321 114.797 22.2721C114.093 22.9121 113.25 23.4134 112.269 23.7761C111.309 24.1387 110.263 24.3201 109.133 24.3201ZM103.501 14.6561H114.893C114.807 13.5681 114.498 12.6081 113.965 11.7761C113.431 10.9441 112.749 10.2934 111.917 9.82407C111.085 9.35473 110.167 9.12007 109.165 9.12007C108.183 9.12007 107.277 9.35473 106.445 9.82407C105.613 10.2934 104.93 10.9441 104.397 11.7761C103.885 12.6081 103.586 13.5681 103.501 14.6561Z" fill="#F1F1F1"/>
<path d="M135.143 24.0001H132.327V14.6561C132.327 12.8854 132.05 11.5947 131.495 10.7841C130.962 9.95207 130.14 9.53607 129.031 9.53607C128.263 9.53607 127.495 9.72807 126.727 10.1121C125.98 10.4961 125.308 11.0187 124.711 11.6801C124.135 12.3201 123.719 13.0667 123.463 13.9201V24.0001H120.647V7.29607H123.207V10.8801C123.655 10.0907 124.231 9.40807 124.935 8.83207C125.639 8.25607 126.439 7.80807 127.335 7.48807C128.231 7.16807 129.17 7.00807 130.151 7.00807C131.111 7.00807 131.911 7.1894 132.551 7.55207C133.212 7.8934 133.724 8.38407 134.087 9.02407C134.471 9.64273 134.738 10.3787 134.887 11.2321C135.058 12.0854 135.143 13.0134 135.143 14.0161V24.0001Z" fill="#F1F1F1"/>
<path d="M148.006 23.1681C147.771 23.2747 147.451 23.4134 147.046 23.5841C146.64 23.7547 146.171 23.9041 145.638 24.0321C145.104 24.1601 144.539 24.2241 143.942 24.2241C143.259 24.2241 142.63 24.1067 142.054 23.8721C141.478 23.6161 141.019 23.2321 140.678 22.7201C140.336 22.1867 140.166 21.5254 140.166 20.7361V9.50407H137.894V7.29607H140.166V1.72807H142.982V7.29607H146.726V9.50407H142.982V19.8721C143.024 20.4694 143.227 20.9174 143.59 21.2161C143.952 21.4934 144.379 21.6321 144.87 21.6321C145.424 21.6321 145.936 21.5361 146.406 21.3441C146.875 21.1521 147.184 21.0134 147.334 20.9281L148.006 23.1681Z" fill="#F1F1F1"/>
<path d="M156.344 24.3201C154.957 24.3201 153.656 24.0961 152.44 23.6481C151.224 23.1787 150.178 22.4854 149.304 21.5681L150.392 19.5841C151.352 20.4801 152.312 21.1201 153.272 21.5041C154.232 21.8881 155.213 22.0801 156.216 22.0801C157.368 22.0801 158.306 21.8667 159.032 21.4401C159.757 20.9921 160.12 20.3414 160.12 19.4881C160.12 18.8694 159.928 18.4107 159.544 18.1121C159.181 17.8134 158.658 17.5681 157.976 17.3761C157.293 17.1627 156.482 16.9281 155.544 16.6721C154.392 16.3307 153.421 15.9681 152.632 15.5841C151.842 15.2001 151.245 14.7201 150.84 14.1441C150.434 13.5681 150.232 12.8427 150.232 11.9681C150.232 10.9014 150.509 10.0054 151.064 9.28007C151.618 8.5334 152.376 7.96807 153.336 7.58407C154.317 7.20007 155.426 7.00807 156.664 7.00807C157.901 7.00807 159.021 7.20007 160.024 7.58407C161.026 7.96807 161.89 8.5334 162.616 9.28007L161.336 11.2321C160.674 10.5494 159.949 10.0481 159.16 9.72807C158.37 9.38673 157.485 9.21607 156.504 9.21607C155.928 9.21607 155.362 9.29073 154.808 9.44007C154.253 9.56807 153.794 9.8134 153.432 10.1761C153.069 10.5174 152.888 11.0081 152.888 11.6481C152.888 12.1814 153.026 12.6081 153.304 12.9281C153.602 13.2267 154.029 13.4827 154.584 13.6961C155.16 13.9094 155.853 14.1441 156.664 14.4001C157.922 14.7627 159.01 15.1254 159.928 15.4881C160.866 15.8507 161.592 16.3201 162.104 16.8961C162.616 17.4721 162.872 18.2721 162.872 19.2961C162.872 20.8747 162.274 22.1121 161.08 23.0081C159.885 23.8827 158.306 24.3201 156.344 24.3201Z" fill="#F1F1F1"/>
<path d="M173.023 19.1681C173.023 18.1014 173.321 17.1841 173.919 16.4161C174.537 15.6267 175.38 15.0187 176.447 14.5921C177.513 14.1654 178.751 13.9521 180.159 13.9521C180.905 13.9521 181.695 14.0161 182.527 14.1441C183.359 14.2507 184.095 14.4214 184.735 14.6561V13.4401C184.735 12.1601 184.351 11.1574 183.583 10.4321C182.815 9.6854 181.727 9.31207 180.319 9.31207C179.401 9.31207 178.516 9.48273 177.663 9.82407C176.831 10.1441 175.945 10.6134 175.007 11.2321L173.983 9.24807C175.071 8.5014 176.159 7.94673 177.247 7.58407C178.335 7.20007 179.465 7.00807 180.639 7.00807C182.772 7.00807 184.457 7.6054 185.695 8.80007C186.932 9.9734 187.551 11.6161 187.551 13.7281V20.8001C187.551 21.1414 187.615 21.3974 187.743 21.5681C187.892 21.7174 188.127 21.8027 188.447 21.8241V24.0001C188.169 24.0427 187.924 24.0747 187.711 24.0961C187.519 24.1174 187.359 24.1281 187.231 24.1281C186.569 24.1281 186.068 23.9467 185.727 23.5841C185.407 23.2214 185.225 22.8374 185.183 22.4321L185.119 21.3761C184.393 22.3147 183.444 23.0401 182.271 23.5521C181.097 24.0641 179.935 24.3201 178.783 24.3201C177.673 24.3201 176.681 24.0961 175.807 23.6481C174.932 23.1787 174.249 22.5601 173.759 21.7921C173.268 21.0027 173.023 20.1281 173.023 19.1681ZM183.903 20.3521C184.159 20.0534 184.361 19.7547 184.511 19.4561C184.66 19.1361 184.735 18.8694 184.735 18.6561V16.5761C184.073 16.3201 183.38 16.1281 182.655 16.0001C181.929 15.8507 181.215 15.7761 180.511 15.7761C179.081 15.7761 177.919 16.0641 177.023 16.6401C176.148 17.1947 175.711 17.9627 175.711 18.9441C175.711 19.4774 175.849 20.0001 176.127 20.5121C176.425 21.0027 176.852 21.4081 177.407 21.7281C177.983 22.0481 178.687 22.2081 179.519 22.2081C180.393 22.2081 181.225 22.0374 182.015 21.6961C182.804 21.3334 183.433 20.8854 183.903 20.3521Z" fill="#F1F1F1"/>
<path d="M200.885 9.76007C199.477 9.7814 198.229 10.1441 197.141 10.8481C196.075 11.5307 195.317 12.4801 194.869 13.6961V24.0001H192.053V7.29607H194.677V11.1681C195.253 10.0161 196.011 9.08807 196.949 8.38407C197.909 7.65873 198.912 7.2534 199.957 7.16807C200.171 7.16807 200.352 7.16807 200.501 7.16807C200.651 7.16807 200.779 7.17873 200.885 7.20007V9.76007Z" fill="#F1F1F1"/>
<path d="M210.664 24.3201C209.405 24.3201 208.253 24.0961 207.208 23.6481C206.184 23.1787 205.288 22.5494 204.52 21.7601C203.773 20.9494 203.187 20.0214 202.76 18.9761C202.355 17.9307 202.152 16.8214 202.152 15.6481C202.152 14.0694 202.515 12.6294 203.24 11.3281C203.965 10.0267 204.968 8.9814 206.248 8.19207C207.549 7.40273 209.032 7.00807 210.696 7.00807C212.381 7.00807 213.843 7.4134 215.08 8.22407C216.339 9.0134 217.309 10.0587 217.992 11.3601C218.696 12.6401 219.048 14.0267 219.048 15.5201C219.048 15.7334 219.037 15.9467 219.016 16.1601C219.016 16.3521 219.005 16.5014 218.984 16.6081H205.128C205.213 17.6961 205.512 18.6667 206.024 19.5201C206.557 20.3521 207.24 21.0134 208.072 21.5041C208.904 21.9734 209.8 22.2081 210.76 22.2081C211.784 22.2081 212.744 21.9521 213.64 21.4401C214.557 20.9281 215.187 20.2561 215.528 19.4241L217.96 20.0961C217.597 20.9067 217.053 21.6321 216.328 22.2721C215.624 22.9121 214.781 23.4134 213.8 23.7761C212.84 24.1387 211.795 24.3201 210.664 24.3201ZM205.032 14.6561H216.424C216.339 13.5681 216.029 12.6081 215.496 11.7761C214.963 10.9441 214.28 10.2934 213.448 9.82407C212.616 9.35473 211.699 9.12007 210.696 9.12007C209.715 9.12007 208.808 9.35473 207.976 9.82407C207.144 10.2934 206.461 10.9441 205.928 11.7761C205.416 12.6081 205.117 13.5681 205.032 14.6561Z" fill="#F1F1F1"/>
<path d="M237.568 24.3201C236.309 24.3201 235.168 24.0961 234.144 23.6481C233.12 23.1787 232.235 22.5494 231.488 21.7601C230.741 20.9494 230.165 20.0214 229.76 18.9761C229.355 17.9307 229.152 16.8321 229.152 15.6801C229.152 14.5067 229.355 13.3974 229.76 12.3521C230.165 11.3067 230.741 10.3894 231.488 9.60007C232.235 8.7894 233.12 8.16007 234.144 7.71207C235.189 7.24273 236.331 7.00807 237.568 7.00807C238.827 7.00807 239.968 7.24273 240.992 7.71207C242.016 8.16007 242.901 8.7894 243.648 9.60007C244.416 10.3894 245.003 11.3067 245.408 12.3521C245.813 13.3974 246.016 14.5067 246.016 15.6801C246.016 16.8321 245.813 17.9307 245.408 18.9761C245.003 20.0214 244.427 20.9494 243.68 21.7601C242.933 22.5494 242.037 23.1787 240.992 23.6481C239.968 24.0961 238.827 24.3201 237.568 24.3201ZM232.032 15.7121C232.032 16.8641 232.277 17.9094 232.768 18.8481C233.28 19.7867 233.952 20.5334 234.784 21.0881C235.616 21.6214 236.544 21.8881 237.568 21.8881C238.592 21.8881 239.52 21.6107 240.352 21.0561C241.205 20.5014 241.877 19.7547 242.368 18.8161C242.88 17.8561 243.136 16.8001 243.136 15.6481C243.136 14.4961 242.88 13.4507 242.368 12.5121C241.877 11.5734 241.205 10.8267 240.352 10.2721C239.52 9.7174 238.592 9.44007 237.568 9.44007C236.544 9.44007 235.616 9.72807 234.784 10.3041C233.952 10.8587 233.28 11.6054 232.768 12.5441C232.277 13.4827 232.032 14.5387 232.032 15.7121Z" fill="#F1F1F1"/>
<path d="M263.924 24.0001H261.108V14.6561C261.108 12.8854 260.831 11.5947 260.276 10.7841C259.743 9.95207 258.922 9.53607 257.812 9.53607C257.044 9.53607 256.276 9.72807 255.508 10.1121C254.762 10.4961 254.09 11.0187 253.492 11.6801C252.916 12.3201 252.5 13.0667 252.244 13.9201V24.0001H249.428V7.29607H251.988V10.8801C252.436 10.0907 253.012 9.40807 253.716 8.83207C254.42 8.25607 255.22 7.80807 256.116 7.48807C257.012 7.16807 257.951 7.00807 258.932 7.00807C259.892 7.00807 260.692 7.1894 261.332 7.55207C261.994 7.8934 262.506 8.38407 262.868 9.02407C263.252 9.64273 263.519 10.3787 263.668 11.2321C263.839 12.0854 263.924 13.0134 263.924 14.0161V24.0001Z" fill="#F1F1F1"/>
<path d="M275.695 24.3201C274.437 24.3201 273.285 24.0961 272.239 23.6481C271.215 23.1787 270.319 22.5494 269.551 21.7601C268.805 20.9494 268.218 20.0214 267.791 18.9761C267.386 17.9307 267.183 16.8214 267.183 15.6481C267.183 14.0694 267.546 12.6294 268.271 11.3281C268.997 10.0267 269.999 8.9814 271.279 8.19207C272.581 7.40273 274.063 7.00807 275.727 7.00807C277.413 7.00807 278.874 7.4134 280.111 8.22407C281.37 9.0134 282.341 10.0587 283.023 11.3601C283.727 12.6401 284.079 14.0267 284.079 15.5201C284.079 15.7334 284.069 15.9467 284.047 16.1601C284.047 16.3521 284.037 16.5014 284.015 16.6081H270.159C270.245 17.6961 270.543 18.6667 271.055 19.5201C271.589 20.3521 272.271 21.0134 273.103 21.5041C273.935 21.9734 274.831 22.2081 275.791 22.2081C276.815 22.2081 277.775 21.9521 278.671 21.4401C279.589 20.9281 280.218 20.2561 280.559 19.4241L282.991 20.0961C282.629 20.9067 282.085 21.6321 281.359 22.2721C280.655 22.9121 279.813 23.4134 278.831 23.7761C277.871 24.1387 276.826 24.3201 275.695 24.3201ZM270.063 14.6561H281.455C281.37 13.5681 281.061 12.6081 280.527 11.7761C279.994 10.9441 279.311 10.2934 278.479 9.82407C277.647 9.35473 276.73 9.12007 275.727 9.12007C274.746 9.12007 273.839 9.35473 273.007 9.82407C272.175 10.2934 271.493 10.9441 270.959 11.7761C270.447 12.6081 270.149 13.5681 270.063 14.6561Z" fill="#F1F1F1"/>
<path d="M302.599 24.3201C301.341 24.3201 300.199 24.0961 299.175 23.6481C298.151 23.1787 297.266 22.5494 296.519 21.7601C295.773 20.9494 295.197 20.0214 294.791 18.9761C294.386 17.9307 294.183 16.8321 294.183 15.6801C294.183 14.5067 294.386 13.3974 294.791 12.3521C295.197 11.3067 295.773 10.3894 296.519 9.60007C297.266 8.7894 298.151 8.16007 299.175 7.71207C300.221 7.24273 301.362 7.00807 302.599 7.00807C303.858 7.00807 304.999 7.24273 306.023 7.71207C307.047 8.16007 307.933 8.7894 308.679 9.60007C309.447 10.3894 310.034 11.3067 310.439 12.3521C310.845 13.3974 311.047 14.5067 311.047 15.6801C311.047 16.8321 310.845 17.9307 310.439 18.9761C310.034 20.0214 309.458 20.9494 308.711 21.7601C307.965 22.5494 307.069 23.1787 306.023 23.6481C304.999 24.0961 303.858 24.3201 302.599 24.3201ZM297.063 15.7121C297.063 16.8641 297.309 17.9094 297.799 18.8481C298.311 19.7867 298.983 20.5334 299.815 21.0881C300.647 21.6214 301.575 21.8881 302.599 21.8881C303.623 21.8881 304.551 21.6107 305.383 21.0561C306.237 20.5014 306.909 19.7547 307.399 18.8161C307.911 17.8561 308.167 16.8001 308.167 15.6481C308.167 14.4961 307.911 13.4507 307.399 12.5121C306.909 11.5734 306.237 10.8267 305.383 10.2721C304.551 9.7174 303.623 9.44007 302.599 9.44007C301.575 9.44007 300.647 9.72807 299.815 10.3041C298.983 10.8587 298.311 11.6054 297.799 12.5441C297.309 13.4827 297.063 14.5387 297.063 15.7121Z" fill="#F1F1F1"/>
<path d="M315.074 24.0001V9.50407H312.802V7.29607H315.074V6.94407C315.074 5.57873 315.277 4.4054 315.682 3.42407C316.109 2.4214 316.706 1.6534 317.474 1.12007C318.242 0.586735 319.149 0.320068 320.194 0.320068C320.856 0.320068 321.506 0.416068 322.146 0.608068C322.786 0.778734 323.362 1.02407 323.874 1.34407L323.17 3.42407C322.872 3.21073 322.498 3.04007 322.05 2.91207C321.624 2.78407 321.197 2.72007 320.77 2.72007C319.853 2.72007 319.138 3.08273 318.626 3.80807C318.136 4.51207 317.89 5.5254 317.89 6.84807V7.29607H322.338V9.50407H317.89V24.0001H315.074Z" fill="#F1F1F1"/>
<path d="M341.162 23.1681C340.927 23.2747 340.607 23.4134 340.202 23.5841C339.797 23.7547 339.327 23.9041 338.794 24.0321C338.261 24.1601 337.695 24.2241 337.098 24.2241C336.415 24.2241 335.786 24.1067 335.21 23.8721C334.634 23.6161 334.175 23.2321 333.834 22.7201C333.493 22.1867 333.322 21.5254 333.322 20.7361V9.50407H331.05V7.29607H333.322V1.72807H336.138V7.29607H339.882V9.50407H336.138V19.8721C336.181 20.4694 336.383 20.9174 336.746 21.2161C337.109 21.4934 337.535 21.6321 338.026 21.6321C338.581 21.6321 339.093 21.5361 339.562 21.3441C340.031 21.1521 340.341 21.0134 340.49 20.9281L341.162 23.1681Z" fill="#F1F1F1"/>
<path d="M358.268 24.0001H355.452V14.6561C355.452 12.9494 355.143 11.6694 354.524 10.8161C353.927 9.96273 353.063 9.53607 351.932 9.53607C351.207 9.53607 350.471 9.72807 349.724 10.1121C348.999 10.4961 348.359 11.0187 347.804 11.6801C347.249 12.3201 346.844 13.0667 346.588 13.9201V24.0001H343.772V0.640068H346.588V10.8801C347.249 9.6854 348.145 8.74673 349.276 8.06407C350.428 7.36007 351.665 7.00807 352.988 7.00807C353.991 7.00807 354.823 7.1894 355.484 7.55207C356.167 7.8934 356.711 8.38407 357.116 9.02407C357.521 9.66407 357.809 10.4107 357.98 11.2641C358.172 12.0961 358.268 13.0134 358.268 14.0161V24.0001Z" fill="#F1F1F1"/>
<path d="M370.039 24.3201C368.78 24.3201 367.628 24.0961 366.583 23.6481C365.559 23.1787 364.663 22.5494 363.895 21.7601C363.148 20.9494 362.562 20.0214 362.135 18.9761C361.73 17.9307 361.527 16.8214 361.527 15.6481C361.527 14.0694 361.89 12.6294 362.615 11.3281C363.34 10.0267 364.343 8.9814 365.623 8.19207C366.924 7.40273 368.407 7.00807 370.071 7.00807C371.756 7.00807 373.218 7.4134 374.455 8.22407C375.714 9.0134 376.684 10.0587 377.367 11.3601C378.071 12.6401 378.423 14.0267 378.423 15.5201C378.423 15.7334 378.412 15.9467 378.391 16.1601C378.391 16.3521 378.38 16.5014 378.359 16.6081H364.503C364.588 17.6961 364.887 18.6667 365.399 19.5201C365.932 20.3521 366.615 21.0134 367.447 21.5041C368.279 21.9734 369.175 22.2081 370.135 22.2081C371.159 22.2081 372.119 21.9521 373.015 21.4401C373.932 20.9281 374.562 20.2561 374.903 19.4241L377.335 20.0961C376.972 20.9067 376.428 21.6321 375.703 22.2721C374.999 22.9121 374.156 23.4134 373.175 23.7761C372.215 24.1387 371.17 24.3201 370.039 24.3201ZM364.407 14.6561H375.799C375.714 13.5681 375.404 12.6081 374.871 11.7761C374.338 10.9441 373.655 10.2934 372.823 9.82407C371.991 9.35473 371.074 9.12007 370.071 9.12007C369.09 9.12007 368.183 9.35473 367.351 9.82407C366.519 10.2934 365.836 10.9441 365.303 11.7761C364.791 12.6081 364.492 13.5681 364.407 14.6561Z" fill="#F1F1F1"/>
<path d="M398.223 24.3201C396.922 24.3201 395.738 24.0001 394.671 23.3601C393.604 22.7201 392.762 21.8881 392.143 20.8641V24.0001H389.647V0.640068H392.463V10.6241C393.167 9.53607 394.031 8.6614 395.055 8.00007C396.079 7.33873 397.274 7.00807 398.639 7.00807C399.791 7.00807 400.826 7.2534 401.743 7.74407C402.66 8.2134 403.439 8.86407 404.079 9.69607C404.74 10.5067 405.242 11.4347 405.583 12.4801C405.946 13.5041 406.127 14.5814 406.127 15.7121C406.127 16.8854 405.924 17.9947 405.519 19.0401C405.135 20.0641 404.58 20.9814 403.855 21.7921C403.13 22.5814 402.287 23.2001 401.327 23.6481C400.388 24.0961 399.354 24.3201 398.223 24.3201ZM397.519 21.8881C398.351 21.8881 399.119 21.7174 399.823 21.3761C400.527 21.0347 401.135 20.5761 401.647 20.0001C402.159 19.4241 402.554 18.7627 402.831 18.0161C403.108 17.2694 403.247 16.5014 403.247 15.7121C403.247 14.6241 403.012 13.6001 402.543 12.6401C402.095 11.6801 401.455 10.9121 400.623 10.3361C399.812 9.73873 398.863 9.44007 397.775 9.44007C396.986 9.44007 396.25 9.6214 395.567 9.98407C394.884 10.3467 394.276 10.8267 393.743 11.4241C393.231 12.0001 392.804 12.6401 392.463 13.3441V18.1761C392.57 18.7094 392.794 19.2001 393.135 19.6481C393.476 20.0961 393.892 20.4907 394.383 20.8321C394.874 21.1521 395.386 21.4081 395.919 21.6001C396.474 21.7921 397.007 21.8881 397.519 21.8881Z" fill="#F1F1F1"/>
<path d="M409.585 24.0001V7.29607H412.401V24.0001H409.585ZM409.585 4.16007V0.640068H412.401V4.16007H409.585Z" fill="#F1F1F1"/>
<path d="M423.616 24.1921C422.485 24.1921 421.44 23.9681 420.48 23.5201C419.541 23.0507 418.73 22.4214 418.048 21.6321C417.365 20.8214 416.832 19.9041 416.448 18.8801C416.085 17.8561 415.904 16.7894 415.904 15.6801C415.904 14.5067 416.085 13.3974 416.448 12.3521C416.832 11.3067 417.365 10.3894 418.048 9.60007C418.752 8.7894 419.573 8.16007 420.512 7.71207C421.45 7.24273 422.496 7.00807 423.648 7.00807C425.034 7.00807 426.24 7.3494 427.264 8.03207C428.309 8.71474 429.184 9.57873 429.888 10.6241V7.29607H432.384V23.8081C432.384 25.3867 432 26.7201 431.232 27.8081C430.485 28.8961 429.461 29.7174 428.16 30.2721C426.88 30.8481 425.45 31.1361 423.872 31.1361C421.994 31.1361 420.458 30.8054 419.264 30.1441C418.069 29.4827 417.077 28.5867 416.288 27.4561L417.92 26.0161C418.581 26.9974 419.434 27.7334 420.48 28.2241C421.546 28.7147 422.677 28.9601 423.872 28.9601C424.896 28.9601 425.834 28.7681 426.688 28.3841C427.562 28.0214 428.256 27.4561 428.768 26.6881C429.301 25.9201 429.568 24.9601 429.568 23.8081V20.8641C428.949 21.8881 428.096 22.6987 427.008 23.2961C425.941 23.8934 424.81 24.1921 423.616 24.1921ZM424.48 21.8881C425.077 21.8881 425.653 21.7814 426.208 21.5681C426.762 21.3547 427.274 21.0774 427.744 20.7361C428.213 20.3734 428.608 19.9681 428.928 19.5201C429.248 19.0721 429.461 18.6134 429.568 18.1441V13.3441C429.269 12.5761 428.842 11.9041 428.288 11.3281C427.733 10.7307 427.104 10.2721 426.4 9.95207C425.696 9.61073 424.97 9.44007 424.224 9.44007C423.37 9.44007 422.602 9.6214 421.92 9.98407C421.258 10.3467 420.693 10.8374 420.224 11.4561C419.754 12.0534 419.392 12.7254 419.136 13.4721C418.88 14.2187 418.752 14.9761 418.752 15.7441C418.752 16.5761 418.901 17.3654 419.2 18.1121C419.498 18.8374 419.904 19.4881 420.416 20.0641C420.928 20.6401 421.536 21.0881 422.24 21.4081C422.944 21.7281 423.69 21.8881 424.48 21.8881Z" fill="#F1F1F1"/>
<path d="M443.584 24.1921C442.454 24.1921 441.408 23.9681 440.448 23.5201C439.51 23.0507 438.699 22.4214 438.016 21.6321C437.334 20.8214 436.8 19.9041 436.416 18.8801C436.054 17.8561 435.872 16.7894 435.872 15.6801C435.872 14.5067 436.054 13.3974 436.416 12.3521C436.8 11.3067 437.334 10.3894 438.016 9.60007C438.72 8.7894 439.542 8.16007 440.48 7.71207C441.419 7.24273 442.464 7.00807 443.616 7.00807C445.003 7.00807 446.208 7.3494 447.232 8.03207C448.278 8.71474 449.152 9.57873 449.856 10.6241V7.29607H452.352V23.8081C452.352 25.3867 451.968 26.7201 451.2 27.8081C450.454 28.8961 449.43 29.7174 448.128 30.2721C446.848 30.8481 445.419 31.1361 443.84 31.1361C441.963 31.1361 440.427 30.8054 439.232 30.1441C438.038 29.4827 437.046 28.5867 436.256 27.4561L437.888 26.0161C438.55 26.9974 439.403 27.7334 440.448 28.2241C441.515 28.7147 442.646 28.9601 443.84 28.9601C444.864 28.9601 445.803 28.7681 446.656 28.3841C447.531 28.0214 448.224 27.4561 448.736 26.6881C449.27 25.9201 449.536 24.9601 449.536 23.8081V20.8641C448.918 21.8881 448.064 22.6987 446.976 23.2961C445.91 23.8934 444.779 24.1921 443.584 24.1921ZM444.448 21.8881C445.046 21.8881 445.622 21.7814 446.176 21.5681C446.731 21.3547 447.243 21.0774 447.712 20.7361C448.182 20.3734 448.576 19.9681 448.896 19.5201C449.216 19.0721 449.43 18.6134 449.536 18.1441V13.3441C449.238 12.5761 448.811 11.9041 448.256 11.3281C447.702 10.7307 447.072 10.2721 446.368 9.95207C445.664 9.61073 444.939 9.44007 444.192 9.44007C443.339 9.44007 442.571 9.6214 441.888 9.98407C441.227 10.3467 440.662 10.8374 440.192 11.4561C439.723 12.0534 439.36 12.7254 439.104 13.4721C438.848 14.2187 438.72 14.9761 438.72 15.7441C438.72 16.5761 438.87 17.3654 439.168 18.1121C439.467 18.8374 439.872 19.4881 440.384 20.0641C440.896 20.6401 441.504 21.0881 442.208 21.4081C442.912 21.7281 443.659 21.8881 444.448 21.8881Z" fill="#F1F1F1"/>
<path d="M464.289 24.3201C463.03 24.3201 461.878 24.0961 460.833 23.6481C459.809 23.1787 458.913 22.5494 458.145 21.7601C457.398 20.9494 456.812 20.0214 456.385 18.9761C455.98 17.9307 455.777 16.8214 455.777 15.6481C455.777 14.0694 456.14 12.6294 456.865 11.3281C457.59 10.0267 458.593 8.9814 459.873 8.19207C461.174 7.40273 462.657 7.00807 464.321 7.00807C466.006 7.00807 467.468 7.4134 468.705 8.22407C469.964 9.0134 470.934 10.0587 471.617 11.3601C472.321 12.6401 472.673 14.0267 472.673 15.5201C472.673 15.7334 472.662 15.9467 472.641 16.1601C472.641 16.3521 472.63 16.5014 472.609 16.6081H458.753C458.838 17.6961 459.137 18.6667 459.649 19.5201C460.182 20.3521 460.865 21.0134 461.697 21.5041C462.529 21.9734 463.425 22.2081 464.385 22.2081C465.409 22.2081 466.369 21.9521 467.265 21.4401C468.182 20.9281 468.812 20.2561 469.153 19.4241L471.585 20.0961C471.222 20.9067 470.678 21.6321 469.953 22.2721C469.249 22.9121 468.406 23.4134 467.425 23.7761C466.465 24.1387 465.42 24.3201 464.289 24.3201ZM458.657 14.6561H470.049C469.964 13.5681 469.654 12.6081 469.121 11.7761C468.588 10.9441 467.905 10.2934 467.073 9.82407C466.241 9.35473 465.324 9.12007 464.321 9.12007C463.34 9.12007 462.433 9.35473 461.601 9.82407C460.769 10.2934 460.086 10.9441 459.553 11.7761C459.041 12.6081 458.742 13.5681 458.657 14.6561Z" fill="#F1F1F1"/>
<path d="M481.531 24.3201C480.145 24.3201 478.843 24.0961 477.627 23.6481C476.411 23.1787 475.366 22.4854 474.491 21.5681L475.579 19.5841C476.539 20.4801 477.499 21.1201 478.459 21.5041C479.419 21.8881 480.401 22.0801 481.403 22.0801C482.555 22.0801 483.494 21.8667 484.219 21.4401C484.945 20.9921 485.307 20.3414 485.307 19.4881C485.307 18.8694 485.115 18.4107 484.731 18.1121C484.369 17.8134 483.846 17.5681 483.163 17.3761C482.481 17.1627 481.67 16.9281 480.731 16.6721C479.579 16.3307 478.609 15.9681 477.819 15.5841C477.03 15.2001 476.433 14.7201 476.027 14.1441C475.622 13.5681 475.419 12.8427 475.419 11.9681C475.419 10.9014 475.697 10.0054 476.251 9.28007C476.806 8.5334 477.563 7.96807 478.523 7.58407C479.505 7.20007 480.614 7.00807 481.851 7.00807C483.089 7.00807 484.209 7.20007 485.211 7.58407C486.214 7.96807 487.078 8.5334 487.803 9.28007L486.523 11.2321C485.862 10.5494 485.137 10.0481 484.347 9.72807C483.558 9.38673 482.673 9.21607 481.691 9.21607C481.115 9.21607 480.55 9.29073 479.995 9.44007C479.441 9.56807 478.982 9.8134 478.619 10.1761C478.257 10.5174 478.075 11.0081 478.075 11.6481C478.075 12.1814 478.214 12.6081 478.491 12.9281C478.79 13.2267 479.217 13.4827 479.771 13.6961C480.347 13.9094 481.041 14.1441 481.851 14.4001C483.11 14.7627 484.198 15.1254 485.115 15.4881C486.054 15.8507 486.779 16.3201 487.291 16.8961C487.803 17.4721 488.059 18.2721 488.059 19.2961C488.059 20.8747 487.462 22.1121 486.267 23.0081C485.073 23.8827 483.494 24.3201 481.531 24.3201Z" fill="#F1F1F1"/>
<path d="M500.068 23.1681C499.834 23.2747 499.514 23.4134 499.108 23.5841C498.703 23.7547 498.234 23.9041 497.7 24.0321C497.167 24.1601 496.602 24.2241 496.004 24.2241C495.322 24.2241 494.692 24.1067 494.116 23.8721C493.54 23.6161 493.082 23.2321 492.74 22.7201C492.399 22.1867 492.228 21.5254 492.228 20.7361V9.50407H489.956V7.29607H492.228V1.72807H495.044V7.29607H498.788V9.50407H495.044V19.8721C495.087 20.4694 495.29 20.9174 495.652 21.2161C496.015 21.4934 496.442 21.6321 496.932 21.6321C497.487 21.6321 497.999 21.5361 498.468 21.3441C498.938 21.1521 499.247 21.0134 499.396 20.9281L500.068 23.1681Z" fill="#F1F1F1"/>
<path d="M519.412 23.1681C519.177 23.2747 518.857 23.4134 518.452 23.5841C518.047 23.7547 517.577 23.9041 517.044 24.0321C516.511 24.1601 515.945 24.2241 515.348 24.2241C514.665 24.2241 514.036 24.1067 513.46 23.8721C512.884 23.6161 512.425 23.2321 512.084 22.7201C511.743 22.1867 511.572 21.5254 511.572 20.7361V9.50407H509.3V7.29607H511.572V1.72807H514.388V7.29607H518.132V9.50407H514.388V19.8721C514.431 20.4694 514.633 20.9174 514.996 21.2161C515.359 21.4934 515.785 21.6321 516.276 21.6321C516.831 21.6321 517.343 21.5361 517.812 21.3441C518.281 21.1521 518.591 21.0134 518.74 20.9281L519.412 23.1681Z" fill="#F1F1F1"/>
<path d="M529.195 24.3201C527.937 24.3201 526.785 24.0961 525.739 23.6481C524.715 23.1787 523.819 22.5494 523.051 21.7601C522.305 20.9494 521.718 20.0214 521.291 18.9761C520.886 17.9307 520.683 16.8214 520.683 15.6481C520.683 14.0694 521.046 12.6294 521.771 11.3281C522.497 10.0267 523.499 8.9814 524.779 8.19207C526.081 7.40273 527.563 7.00807 529.227 7.00807C530.913 7.00807 532.374 7.4134 533.611 8.22407C534.87 9.0134 535.841 10.0587 536.523 11.3601C537.227 12.6401 537.579 14.0267 537.579 15.5201C537.579 15.7334 537.569 15.9467 537.547 16.1601C537.547 16.3521 537.537 16.5014 537.515 16.6081H523.659C523.745 17.6961 524.043 18.6667 524.555 19.5201C525.089 20.3521 525.771 21.0134 526.603 21.5041C527.435 21.9734 528.331 22.2081 529.291 22.2081C530.315 22.2081 531.275 21.9521 532.171 21.4401C533.089 20.9281 533.718 20.2561 534.059 19.4241L536.491 20.0961C536.129 20.9067 535.585 21.6321 534.859 22.2721C534.155 22.9121 533.313 23.4134 532.331 23.7761C531.371 24.1387 530.326 24.3201 529.195 24.3201ZM523.563 14.6561H534.955C534.87 13.5681 534.561 12.6081 534.027 11.7761C533.494 10.9441 532.811 10.2934 531.979 9.82407C531.147 9.35473 530.23 9.12007 529.227 9.12007C528.246 9.12007 527.339 9.35473 526.507 9.82407C525.675 10.2934 524.993 10.9441 524.459 11.7761C523.947 12.6081 523.649 13.5681 523.563 14.6561Z" fill="#F1F1F1"/>
<path d="M548.102 24.3201C546.843 24.3201 545.691 24.0961 544.646 23.6481C543.622 23.1787 542.726 22.5387 541.958 21.7281C541.211 20.9174 540.624 19.9894 540.198 18.9441C539.792 17.8987 539.59 16.7894 539.59 15.6161C539.59 14.0374 539.942 12.5974 540.646 11.2961C541.35 9.99473 542.342 8.96007 543.622 8.19207C544.902 7.40273 546.384 7.00807 548.07 7.00807C549.712 7.00807 551.142 7.3814 552.358 8.12807C553.595 8.8534 554.512 9.83473 555.11 11.0721L552.358 11.9361C551.931 11.1467 551.334 10.5387 550.566 10.1121C549.798 9.66407 548.944 9.44007 548.006 9.44007C546.982 9.44007 546.043 9.70673 545.19 10.2401C544.358 10.7734 543.696 11.5094 543.206 12.4481C542.715 13.3654 542.47 14.4214 542.47 15.6161C542.47 16.7894 542.715 17.8561 543.206 18.8161C543.718 19.7547 544.39 20.5014 545.222 21.0561C546.075 21.6107 547.014 21.8881 548.038 21.8881C548.699 21.8881 549.328 21.7707 549.926 21.5361C550.544 21.3014 551.078 20.9921 551.526 20.6081C551.995 20.2027 552.315 19.7654 552.486 19.2961L555.238 20.1281C554.896 20.9387 554.374 21.6641 553.67 22.3041C552.987 22.9227 552.166 23.4134 551.206 23.7761C550.267 24.1387 549.232 24.3201 548.102 24.3201Z" fill="#F1F1F1"/>
<path d="M572.924 24.0001H570.108V14.6561C570.108 12.9494 569.799 11.6694 569.18 10.8161C568.583 9.96273 567.719 9.53607 566.588 9.53607C565.863 9.53607 565.127 9.72807 564.38 10.1121C563.655 10.4961 563.015 11.0187 562.46 11.6801C561.906 12.3201 561.5 13.0667 561.244 13.9201V24.0001H558.428V0.640068H561.244V10.8801C561.906 9.6854 562.802 8.74673 563.932 8.06407C565.084 7.36007 566.322 7.00807 567.644 7.00807C568.647 7.00807 569.479 7.1894 570.14 7.55207C570.823 7.8934 571.367 8.38407 571.772 9.02407C572.178 9.66407 572.466 10.4107 572.636 11.2641C572.828 12.0961 572.924 13.0134 572.924 14.0161V24.0001Z" fill="#F1F1F1"/>
<path d="M592.789 24.3201C591.53 24.3201 590.378 24.0961 589.333 23.6481C588.309 23.1787 587.413 22.5387 586.645 21.7281C585.898 20.9174 585.312 19.9894 584.885 18.9441C584.48 17.8987 584.277 16.7894 584.277 15.6161C584.277 14.0374 584.629 12.5974 585.333 11.2961C586.037 9.99473 587.029 8.96007 588.309 8.19207C589.589 7.40273 591.072 7.00807 592.757 7.00807C594.4 7.00807 595.829 7.3814 597.045 8.12807C598.282 8.8534 599.2 9.83473 599.797 11.0721L597.045 11.9361C596.618 11.1467 596.021 10.5387 595.253 10.1121C594.485 9.66407 593.632 9.44007 592.693 9.44007C591.669 9.44007 590.73 9.70673 589.877 10.2401C589.045 10.7734 588.384 11.5094 587.893 12.4481C587.402 13.3654 587.157 14.4214 587.157 15.6161C587.157 16.7894 587.402 17.8561 587.893 18.8161C588.405 19.7547 589.077 20.5014 589.909 21.0561C590.762 21.6107 591.701 21.8881 592.725 21.8881C593.386 21.8881 594.016 21.7707 594.613 21.5361C595.232 21.3014 595.765 20.9921 596.213 20.6081C596.682 20.2027 597.002 19.7654 597.173 19.2961L599.925 20.1281C599.584 20.9387 599.061 21.6641 598.357 22.3041C597.674 22.9227 596.853 23.4134 595.893 23.7761C594.954 24.1387 593.92 24.3201 592.789 24.3201Z" fill="#F1F1F1"/>
<path d="M610.256 24.3201C608.997 24.3201 607.856 24.0961 606.832 23.6481C605.808 23.1787 604.922 22.5494 604.176 21.7601C603.429 20.9494 602.853 20.0214 602.448 18.9761C602.042 17.9307 601.84 16.8321 601.84 15.6801C601.84 14.5067 602.042 13.3974 602.448 12.3521C602.853 11.3067 603.429 10.3894 604.176 9.60007C604.922 8.7894 605.808 8.16007 606.832 7.71207C607.877 7.24273 609.018 7.00807 610.256 7.00807C611.514 7.00807 612.656 7.24273 613.68 7.71207C614.704 8.16007 615.589 8.7894 616.336 9.60007C617.104 10.3894 617.69 11.3067 618.096 12.3521C618.501 13.3974 618.704 14.5067 618.704 15.6801C618.704 16.8321 618.501 17.9307 618.096 18.9761C617.69 20.0214 617.114 20.9494 616.368 21.7601C615.621 22.5494 614.725 23.1787 613.68 23.6481C612.656 24.0961 611.514 24.3201 610.256 24.3201ZM604.72 15.7121C604.72 16.8641 604.965 17.9094 605.456 18.8481C605.968 19.7867 606.64 20.5334 607.472 21.0881C608.304 21.6214 609.232 21.8881 610.256 21.8881C611.28 21.8881 612.208 21.6107 613.04 21.0561C613.893 20.5014 614.565 19.7547 615.056 18.8161C615.568 17.8561 615.824 16.8001 615.824 15.6481C615.824 14.4961 615.568 13.4507 615.056 12.5121C614.565 11.5734 613.893 10.8267 613.04 10.2721C612.208 9.7174 611.28 9.44007 610.256 9.44007C609.232 9.44007 608.304 9.72807 607.472 10.3041C606.64 10.8587 605.968 11.6054 605.456 12.5441C604.965 13.4827 604.72 14.5387 604.72 15.7121Z" fill="#F1F1F1"/>
<path d="M647.3 24.0001H644.484V14.6561C644.484 12.9067 644.196 11.6161 643.62 10.7841C643.065 9.95207 642.233 9.53607 641.124 9.53607C639.993 9.53607 638.969 9.95207 638.052 10.7841C637.134 11.5947 636.484 12.6507 636.1 13.9521V24.0001H633.284V14.6561C633.284 12.8854 633.006 11.5947 632.452 10.7841C631.897 9.95207 631.065 9.53607 629.956 9.53607C628.846 9.53607 627.822 9.9414 626.884 10.7521C625.966 11.5414 625.316 12.5974 624.932 13.9201V24.0001H622.116V7.29607H624.676V10.8801C625.358 9.64273 626.244 8.6934 627.332 8.03207C628.42 7.3494 629.646 7.00807 631.012 7.00807C632.398 7.00807 633.508 7.39207 634.34 8.16007C635.172 8.90673 635.684 9.8774 635.876 11.0721C636.622 9.7494 637.529 8.74673 638.596 8.06407C639.662 7.36007 640.878 7.00807 642.244 7.00807C643.204 7.00807 644.004 7.1894 644.644 7.55207C645.305 7.8934 645.828 8.38407 646.212 9.02407C646.596 9.64273 646.873 10.3787 647.044 11.2321C647.214 12.0854 647.3 13.0134 647.3 14.0161V24.0001Z" fill="#F1F1F1"/>
<path d="M660.67 24.3201C659.305 24.3201 658.089 23.9787 657.022 23.2961C655.956 22.6134 655.113 21.7494 654.494 20.7041V30.8161H651.678V7.29607H654.174V10.4321C654.836 9.40807 655.7 8.58673 656.766 7.96807C657.833 7.32807 658.996 7.00807 660.254 7.00807C661.406 7.00807 662.462 7.24273 663.422 7.71207C664.382 8.1814 665.214 8.8214 665.918 9.63207C666.622 10.4427 667.166 11.3707 667.55 12.4161C667.956 13.4401 668.158 14.5174 668.158 15.6481C668.158 17.2267 667.838 18.6774 667.198 20.0001C666.58 21.3227 665.705 22.3787 664.574 23.1681C663.444 23.9361 662.142 24.3201 660.67 24.3201ZM659.806 21.8881C660.638 21.8881 661.385 21.7174 662.046 21.3761C662.729 21.0134 663.305 20.5441 663.774 19.9681C664.265 19.3707 664.638 18.6987 664.894 17.9521C665.15 17.2054 665.278 16.4374 665.278 15.6481C665.278 14.8161 665.129 14.0267 664.83 13.2801C664.553 12.5334 664.148 11.8721 663.614 11.2961C663.102 10.7201 662.494 10.2721 661.79 9.95207C661.108 9.61073 660.361 9.44007 659.55 9.44007C659.038 9.44007 658.505 9.53607 657.95 9.72807C657.417 9.92007 656.905 10.1974 656.414 10.5601C655.924 10.9014 655.508 11.2961 655.166 11.7441C654.825 12.1921 654.601 12.6721 654.494 13.1841V17.9521C654.814 18.6774 655.241 19.3387 655.774 19.9361C656.308 20.5334 656.926 21.0134 657.63 21.3761C658.334 21.7174 659.06 21.8881 659.806 21.8881Z" fill="#F1F1F1"/>
<path d="M670.304 19.1681C670.304 18.1014 670.602 17.1841 671.2 16.4161C671.818 15.6267 672.661 15.0187 673.728 14.5921C674.794 14.1654 676.032 13.9521 677.44 13.9521C678.186 13.9521 678.976 14.0161 679.808 14.1441C680.64 14.2507 681.376 14.4214 682.016 14.6561V13.4401C682.016 12.1601 681.632 11.1574 680.864 10.4321C680.096 9.6854 679.008 9.31207 677.6 9.31207C676.682 9.31207 675.797 9.48273 674.944 9.82407C674.112 10.1441 673.226 10.6134 672.288 11.2321L671.264 9.24807C672.352 8.5014 673.44 7.94673 674.528 7.58407C675.616 7.20007 676.746 7.00807 677.92 7.00807C680.053 7.00807 681.738 7.6054 682.976 8.80007C684.213 9.9734 684.832 11.6161 684.832 13.7281V20.8001C684.832 21.1414 684.896 21.3974 685.024 21.5681C685.173 21.7174 685.408 21.8027 685.728 21.8241V24.0001C685.45 24.0427 685.205 24.0747 684.992 24.0961C684.8 24.1174 684.64 24.1281 684.512 24.1281C683.85 24.1281 683.349 23.9467 683.008 23.5841C682.688 23.2214 682.506 22.8374 682.464 22.4321L682.4 21.3761C681.674 22.3147 680.725 23.0401 679.552 23.5521C678.378 24.0641 677.216 24.3201 676.064 24.3201C674.954 24.3201 673.962 24.0961 673.088 23.6481C672.213 23.1787 671.53 22.5601 671.04 21.7921C670.549 21.0027 670.304 20.1281 670.304 19.1681ZM681.184 20.3521C681.44 20.0534 681.642 19.7547 681.792 19.4561C681.941 19.1361 682.016 18.8694 682.016 18.6561V16.5761C681.354 16.3201 680.661 16.1281 679.936 16.0001C679.21 15.8507 678.496 15.7761 677.792 15.7761C676.362 15.7761 675.2 16.0641 674.304 16.6401C673.429 17.1947 672.992 17.9627 672.992 18.9441C672.992 19.4774 673.13 20.0001 673.408 20.5121C673.706 21.0027 674.133 21.4081 674.688 21.7281C675.264 22.0481 675.968 22.2081 676.8 22.2081C677.674 22.2081 678.506 22.0374 679.296 21.6961C680.085 21.3334 680.714 20.8854 681.184 20.3521Z" fill="#F1F1F1"/>
<path d="M703.831 24.0001H701.015V14.6561C701.015 12.8854 700.737 11.5947 700.183 10.7841C699.649 9.95207 698.828 9.53607 697.719 9.53607C696.951 9.53607 696.183 9.72807 695.415 10.1121C694.668 10.4961 693.996 11.0187 693.399 11.6801C692.823 12.3201 692.407 13.0667 692.151 13.9201V24.0001H689.335V7.29607H691.895V10.8801C692.343 10.0907 692.919 9.40807 693.623 8.83207C694.327 8.25607 695.127 7.80807 696.023 7.48807C696.919 7.16807 697.857 7.00807 698.839 7.00807C699.799 7.00807 700.599 7.1894 701.239 7.55207C701.9 7.8934 702.412 8.38407 702.775 9.02407C703.159 9.64273 703.425 10.3787 703.575 11.2321C703.745 12.0854 703.831 13.0134 703.831 14.0161V24.0001Z" fill="#F1F1F1"/>
<path d="M708.21 24.0001V7.29607H711.026V24.0001H708.21ZM708.21 4.16007V0.640068H711.026V4.16007H708.21Z" fill="#F1F1F1"/>
<path d="M722.977 24.3201C721.718 24.3201 720.566 24.0961 719.521 23.6481C718.497 23.1787 717.601 22.5494 716.833 21.7601C716.086 20.9494 715.499 20.0214 715.073 18.9761C714.667 17.9307 714.465 16.8214 714.465 15.6481C714.465 14.0694 714.827 12.6294 715.553 11.3281C716.278 10.0267 717.281 8.9814 718.561 8.19207C719.862 7.40273 721.345 7.00807 723.009 7.00807C724.694 7.00807 726.155 7.4134 727.393 8.22407C728.651 9.0134 729.622 10.0587 730.305 11.3601C731.009 12.6401 731.361 14.0267 731.361 15.5201C731.361 15.7334 731.35 15.9467 731.329 16.1601C731.329 16.3521 731.318 16.5014 731.297 16.6081H717.441C717.526 17.6961 717.825 18.6667 718.337 19.5201C718.87 20.3521 719.553 21.0134 720.385 21.5041C721.217 21.9734 722.113 22.2081 723.073 22.2081C724.097 22.2081 725.057 21.9521 725.953 21.4401C726.87 20.9281 727.499 20.2561 727.841 19.4241L730.273 20.0961C729.91 20.9067 729.366 21.6321 728.641 22.2721C727.937 22.9121 727.094 23.4134 726.113 23.7761C725.153 24.1387 724.107 24.3201 722.977 24.3201ZM717.345 14.6561H728.737C728.651 13.5681 728.342 12.6081 727.809 11.7761C727.275 10.9441 726.593 10.2934 725.761 9.82407C724.929 9.35473 724.011 9.12007 723.009 9.12007C722.027 9.12007 721.121 9.35473 720.289 9.82407C719.457 10.2934 718.774 10.9441 718.241 11.7761C717.729 12.6081 717.43 13.5681 717.345 14.6561Z" fill="#F1F1F1"/>
<path d="M740.219 24.3201C738.832 24.3201 737.531 24.0961 736.315 23.6481C735.099 23.1787 734.053 22.4854 733.179 21.5681L734.267 19.5841C735.227 20.4801 736.187 21.1201 737.147 21.5041C738.107 21.8881 739.088 22.0801 740.091 22.0801C741.243 22.0801 742.181 21.8667 742.907 21.4401C743.632 20.9921 743.995 20.3414 743.995 19.4881C743.995 18.8694 743.803 18.4107 743.419 18.1121C743.056 17.8134 742.533 17.5681 741.851 17.3761C741.168 17.1627 740.357 16.9281 739.419 16.6721C738.267 16.3307 737.296 15.9681 736.507 15.5841C735.717 15.2001 735.12 14.7201 734.715 14.1441C734.309 13.5681 734.107 12.8427 734.107 11.9681C734.107 10.9014 734.384 10.0054 734.939 9.28007C735.493 8.5334 736.251 7.96807 737.211 7.58407C738.192 7.20007 739.301 7.00807 740.539 7.00807C741.776 7.00807 742.896 7.20007 743.899 7.58407C744.901 7.96807 745.765 8.5334 746.491 9.28007L745.211 11.2321C744.549 10.5494 743.824 10.0481 743.035 9.72807C742.245 9.38673 741.36 9.21607 740.379 9.21607C739.803 9.21607 739.237 9.29073 738.683 9.44007C738.128 9.56807 737.669 9.8134 737.307 10.1761C736.944 10.5174 736.763 11.0081 736.763 11.6481C736.763 12.1814 736.901 12.6081 737.179 12.9281C737.477 13.2267 737.904 13.4827 738.459 13.6961C739.035 13.9094 739.728 14.1441 740.539 14.4001C741.797 14.7627 742.885 15.1254 743.803 15.4881C744.741 15.8507 745.467 16.3201 745.979 16.8961C746.491 17.4721 746.747 18.2721 746.747 19.2961C746.747 20.8747 746.149 22.1121 744.955 23.0081C743.76 23.8827 742.181 24.3201 740.219 24.3201Z" fill="#F1F1F1"/>
<path d="M758.21 24.0001V7.29607H761.026V24.0001H758.21ZM758.21 4.16007V0.640068H761.026V4.16007H758.21Z" fill="#F1F1F1"/>
<path d="M780.081 24.0001H777.265V14.6561C777.265 12.8854 776.987 11.5947 776.433 10.7841C775.899 9.95207 775.078 9.53607 773.969 9.53607C773.201 9.53607 772.433 9.72807 771.665 10.1121C770.918 10.4961 770.246 11.0187 769.649 11.6801C769.073 12.3201 768.657 13.0667 768.401 13.9201V24.0001H765.585V7.29607H768.145V10.8801C768.593 10.0907 769.169 9.40807 769.873 8.83207C770.577 8.25607 771.377 7.80807 772.273 7.48807C773.169 7.16807 774.107 7.00807 775.089 7.00807C776.049 7.00807 776.849 7.1894 777.489 7.55207C778.15 7.8934 778.662 8.38407 779.025 9.02407C779.409 9.64273 779.675 10.3787 779.825 11.2321C779.995 12.0854 780.081 13.0134 780.081 14.0161V24.0001Z" fill="#F1F1F1"/>
<path d="M801.193 23.1681C800.959 23.2747 800.639 23.4134 800.233 23.5841C799.828 23.7547 799.359 23.9041 798.825 24.0321C798.292 24.1601 797.727 24.2241 797.129 24.2241C796.447 24.2241 795.817 24.1067 795.241 23.8721C794.665 23.6161 794.207 23.2321 793.865 22.7201C793.524 22.1867 793.353 21.5254 793.353 20.7361V9.50407H791.081V7.29607H793.353V1.72807H796.169V7.29607H799.913V9.50407H796.169V19.8721C796.212 20.4694 796.415 20.9174 796.777 21.2161C797.14 21.4934 797.567 21.6321 798.057 21.6321C798.612 21.6321 799.124 21.5361 799.593 21.3441C800.063 21.1521 800.372 21.0134 800.521 20.9281L801.193 23.1681Z" fill="#F1F1F1"/>
<path d="M818.299 24.0001H815.483V14.6561C815.483 12.9494 815.174 11.6694 814.555 10.8161C813.958 9.96273 813.094 9.53607 811.963 9.53607C811.238 9.53607 810.502 9.72807 809.755 10.1121C809.03 10.4961 808.39 11.0187 807.835 11.6801C807.281 12.3201 806.875 13.0667 806.619 13.9201V24.0001H803.803V0.640068H806.619V10.8801C807.281 9.6854 808.177 8.74673 809.307 8.06407C810.459 7.36007 811.697 7.00807 813.019 7.00807C814.022 7.00807 814.854 7.1894 815.515 7.55207C816.198 7.8934 816.742 8.38407 817.147 9.02407C817.553 9.66407 817.841 10.4107 818.011 11.2641C818.203 12.0961 818.299 13.0134 818.299 14.0161V24.0001Z" fill="#F1F1F1"/>
<path d="M830.07 24.3201C828.812 24.3201 827.66 24.0961 826.614 23.6481C825.59 23.1787 824.694 22.5494 823.926 21.7601C823.18 20.9494 822.593 20.0214 822.166 18.9761C821.761 17.9307 821.558 16.8214 821.558 15.6481C821.558 14.0694 821.921 12.6294 822.646 11.3281C823.372 10.0267 824.374 8.9814 825.654 8.19207C826.956 7.40273 828.438 7.00807 830.102 7.00807C831.788 7.00807 833.249 7.4134 834.486 8.22407C835.745 9.0134 836.716 10.0587 837.398 11.3601C838.102 12.6401 838.454 14.0267 838.454 15.5201C838.454 15.7334 838.444 15.9467 838.422 16.1601C838.422 16.3521 838.412 16.5014 838.39 16.6081H824.534C824.62 17.6961 824.918 18.6667 825.43 19.5201C825.964 20.3521 826.646 21.0134 827.478 21.5041C828.31 21.9734 829.206 22.2081 830.166 22.2081C831.19 22.2081 832.15 21.9521 833.046 21.4401C833.964 20.9281 834.593 20.2561 834.934 19.4241L837.366 20.0961C837.004 20.9067 836.46 21.6321 835.734 22.2721C835.03 22.9121 834.188 23.4134 833.206 23.7761C832.246 24.1387 831.201 24.3201 830.07 24.3201ZM824.438 14.6561H835.83C835.745 13.5681 835.436 12.6081 834.902 11.7761C834.369 10.9441 833.686 10.2934 832.854 9.82407C832.022 9.35473 831.105 9.12007 830.102 9.12007C829.121 9.12007 828.214 9.35473 827.382 9.82407C826.55 10.2934 825.868 10.9441 825.334 11.7761C824.822 12.6081 824.524 13.5681 824.438 14.6561Z" fill="#F1F1F1"/>
<path d="M869.7 7.29607H872.42L865.316 24.0001H862.852L859.62 16.1281L856.42 24.0001H853.956L846.852 7.29607H849.54L855.3 21.2161L857.988 14.3681L855.172 7.32807H857.636L859.62 12.6401L861.604 7.32807H864.068L861.284 14.3681L863.972 21.2161L869.7 7.29607Z" fill="#F1F1F1"/>
<path d="M881.787 24.3201C880.528 24.3201 879.387 24.0961 878.363 23.6481C877.339 23.1787 876.453 22.5494 875.707 21.7601C874.96 20.9494 874.384 20.0214 873.979 18.9761C873.573 17.9307 873.371 16.8321 873.371 15.6801C873.371 14.5067 873.573 13.3974 873.979 12.3521C874.384 11.3067 874.96 10.3894 875.707 9.60007C876.453 8.7894 877.339 8.16007 878.363 7.71207C879.408 7.24273 880.549 7.00807 881.787 7.00807C883.045 7.00807 884.187 7.24273 885.211 7.71207C886.235 8.16007 887.12 8.7894 887.867 9.60007C888.635 10.3894 889.221 11.3067 889.627 12.3521C890.032 13.3974 890.235 14.5067 890.235 15.6801C890.235 16.8321 890.032 17.9307 889.627 18.9761C889.221 20.0214 888.645 20.9494 887.899 21.7601C887.152 22.5494 886.256 23.1787 885.211 23.6481C884.187 24.0961 883.045 24.3201 881.787 24.3201ZM876.251 15.7121C876.251 16.8641 876.496 17.9094 876.987 18.8481C877.499 19.7867 878.171 20.5334 879.003 21.0881C879.835 21.6214 880.763 21.8881 881.787 21.8881C882.811 21.8881 883.739 21.6107 884.571 21.0561C885.424 20.5014 886.096 19.7547 886.587 18.8161C887.099 17.8561 887.355 16.8001 887.355 15.6481C887.355 14.4961 887.099 13.4507 886.587 12.5121C886.096 11.5734 885.424 10.8267 884.571 10.2721C883.739 9.7174 882.811 9.44007 881.787 9.44007C880.763 9.44007 879.835 9.72807 879.003 10.3041C878.171 10.8587 877.499 11.6054 876.987 12.5441C876.496 13.4827 876.251 14.5387 876.251 15.7121Z" fill="#F1F1F1"/>
<path d="M902.479 9.76007C901.071 9.7814 899.823 10.1441 898.735 10.8481C897.668 11.5307 896.911 12.4801 896.463 13.6961V24.0001H893.647V7.29607H896.271V11.1681C896.847 10.0161 897.604 9.08807 898.543 8.38407C899.503 7.65873 900.506 7.2534 901.551 7.16807C901.764 7.16807 901.946 7.16807 902.095 7.16807C902.244 7.16807 902.372 7.17873 902.479 7.20007V9.76007Z" fill="#F1F1F1"/>
<path d="M905.336 0.640068H908.152V19.6801C908.152 20.5974 908.28 21.1627 908.536 21.3761C908.792 21.5894 909.101 21.6961 909.464 21.6961C909.912 21.6961 910.339 21.6534 910.744 21.5681C911.149 21.4614 911.491 21.3547 911.768 21.2481L912.216 23.5521C911.747 23.7441 911.192 23.9041 910.552 24.0321C909.912 24.1601 909.347 24.2241 908.856 24.2241C907.768 24.2241 906.904 23.9147 906.264 23.2961C905.645 22.6774 905.336 21.8134 905.336 20.7041V0.640068Z" fill="#F1F1F1"/>
<path d="M913.34 15.6801C913.34 14.1014 913.66 12.6614 914.3 11.3601C914.962 10.0374 915.858 8.9814 916.988 8.19207C918.14 7.40273 919.452 7.00807 920.924 7.00807C922.268 7.00807 923.474 7.36007 924.54 8.06407C925.607 8.76807 926.439 9.6214 927.036 10.6241V0.640068H929.852V20.8001C929.852 21.1414 929.916 21.3974 930.044 21.5681C930.194 21.7174 930.428 21.8027 930.748 21.8241V24.0001C930.215 24.0854 929.799 24.1281 929.5 24.1281C928.946 24.1281 928.455 23.9361 928.028 23.5521C927.623 23.1681 927.42 22.7414 927.42 22.2721V20.8641C926.759 21.9307 925.874 22.7734 924.764 23.3921C923.655 24.0107 922.503 24.3201 921.308 24.3201C920.156 24.3201 919.09 24.0961 918.108 23.6481C917.148 23.1787 916.306 22.5387 915.58 21.7281C914.876 20.9174 914.322 20.0001 913.916 18.9761C913.532 17.9307 913.34 16.8321 913.34 15.6801ZM927.036 18.1441V13.3441C926.78 12.6187 926.364 11.9681 925.788 11.3921C925.212 10.7947 924.562 10.3254 923.836 9.98407C923.132 9.6214 922.428 9.44007 921.724 9.44007C920.892 9.44007 920.135 9.6214 919.452 9.98407C918.791 10.3254 918.215 10.7947 917.724 11.3921C917.255 11.9681 916.892 12.6294 916.636 13.3761C916.38 14.1227 916.252 14.9014 916.252 15.7121C916.252 16.5441 916.391 17.3334 916.668 18.0801C916.967 18.8267 917.372 19.4881 917.884 20.0641C918.418 20.6401 919.026 21.0881 919.708 21.4081C920.412 21.7281 921.17 21.8881 921.98 21.8881C922.492 21.8881 923.015 21.7921 923.548 21.6001C924.103 21.4081 924.626 21.1414 925.116 20.8001C925.607 20.4587 926.023 20.0641 926.364 19.6161C926.706 19.1467 926.93 18.6561 927.036 18.1441Z" fill="#F1F1F1"/>
<path fill-rule="evenodd" clip-rule="evenodd" d="M857.047 151.102C847.488 158.208 833.633 162 821.705 162C804.978 162 789.92 155.76 778.528 145.382C777.633 144.565 778.435 143.453 779.509 144.089C791.803 151.304 807.005 155.645 822.707 155.645C833.297 155.645 844.947 153.434 855.658 148.848C857.276 148.155 858.63 149.917 857.047 151.102Z" fill="#F1F1F1" fill-opacity="0.8"/>
<path fill-rule="evenodd" clip-rule="evenodd" d="M861.021 146.515C859.804 144.941 852.945 145.772 849.866 146.14C848.928 146.255 848.784 145.432 849.63 144.84C855.093 140.962 864.057 142.081 865.103 143.381C866.148 144.688 864.831 153.752 859.697 158.078C858.909 158.743 858.157 158.389 858.508 157.508C859.661 154.605 862.246 148.097 861.021 146.515Z" fill="#F1F1F1" fill-opacity="0.8"/>
<path fill-rule="evenodd" clip-rule="evenodd" d="M850.081 117.46V113.69C850.081 113.12 850.51 112.737 851.026 112.737H867.759C868.296 112.737 868.726 113.127 868.726 113.69V116.919C868.719 117.46 868.267 118.168 867.466 119.287L858.795 131.775C862.017 131.695 865.418 132.179 868.339 133.84C868.998 134.216 869.177 134.765 869.227 135.307V139.329C869.227 139.878 868.625 140.521 867.995 140.189C862.847 137.466 856.009 137.17 850.317 140.218C849.737 140.535 849.128 139.9 849.128 139.351V135.53C849.128 134.917 849.135 133.869 849.744 132.938L859.79 118.406H851.047C850.51 118.406 850.081 118.024 850.081 117.46Z" fill="#F1F1F1" fill-opacity="0.8"/>
<path fill-rule="evenodd" clip-rule="evenodd" d="M789.04 140.983H783.949C783.462 140.947 783.075 140.579 783.039 140.109V113.755C783.039 113.228 783.476 112.809 784.02 112.809H788.768C789.262 112.831 789.655 113.214 789.691 113.69V117.135H789.784C791.023 113.806 793.35 112.253 796.486 112.253C799.673 112.253 801.663 113.806 803.095 117.135C804.327 113.806 807.127 112.253 810.127 112.253C812.26 112.253 814.594 113.141 816.019 115.135C817.63 117.352 817.301 120.573 817.301 123.397L817.294 140.03C817.294 140.557 816.857 140.983 816.313 140.983H811.229C810.721 140.947 810.313 140.535 810.313 140.03V126.062C810.313 124.95 810.413 122.176 810.17 121.122C809.79 119.352 808.651 118.854 807.176 118.854C805.945 118.854 804.656 119.685 804.133 121.014C803.611 122.342 803.661 124.567 803.661 126.062V140.03C803.661 140.557 803.224 140.983 802.68 140.983H797.596C797.081 140.947 796.68 140.535 796.68 140.03L796.672 126.062C796.672 123.122 797.152 118.796 793.536 118.796C789.878 118.796 790.021 123.014 790.021 126.062V140.03C790.021 140.557 789.584 140.983 789.04 140.983Z" fill="#F1F1F1" fill-opacity="0.8"/>
<path fill-rule="evenodd" clip-rule="evenodd" d="M883.132 112.253C890.686 112.253 894.775 118.796 894.775 127.116C894.775 135.155 890.256 141.532 883.132 141.532C875.714 141.532 871.676 134.989 871.676 126.835C871.676 118.63 875.764 112.253 883.132 112.253ZM883.175 117.634C879.423 117.634 879.187 122.79 879.187 126.004C879.187 129.225 879.137 136.101 883.132 136.101C887.077 136.101 887.264 130.554 887.264 127.174C887.264 124.95 887.17 122.292 886.505 120.183C885.932 118.349 884.793 117.634 883.175 117.634Z" fill="#F1F1F1" fill-opacity="0.8"/>
<path fill-rule="evenodd" clip-rule="evenodd" d="M904.57 140.983H899.5C898.992 140.947 898.584 140.535 898.584 140.03L898.577 113.669C898.62 113.185 899.042 112.809 899.558 112.809H904.276C904.72 112.831 905.085 113.134 905.186 113.546V117.576H905.279C906.703 113.972 908.701 112.253 912.217 112.253C914.501 112.253 916.728 113.083 918.16 115.359C919.491 117.467 919.492 121.014 919.492 123.563V140.153C919.434 140.615 919.012 140.983 918.511 140.983H913.405C912.94 140.947 912.553 140.6 912.503 140.153V125.838C912.503 122.956 912.833 118.739 909.317 118.739C908.078 118.739 906.94 119.576 906.374 120.847C905.658 122.458 905.565 124.061 905.565 125.838V140.03C905.558 140.557 905.114 140.983 904.57 140.983Z" fill="#F1F1F1" fill-opacity="0.8"/>
<path fill-rule="evenodd" clip-rule="evenodd" d="M836.741 128.395C836.741 130.395 836.791 132.064 835.789 133.84C834.98 135.285 833.691 136.173 832.266 136.173C830.311 136.173 829.166 134.671 829.166 132.454C829.166 128.077 833.053 127.283 836.741 127.283V128.395ZM841.875 140.911C841.539 141.214 841.051 141.236 840.672 141.034C838.982 139.618 838.674 138.961 837.751 137.61C834.958 140.485 832.975 141.344 829.359 141.344C825.07 141.344 821.74 138.679 821.74 133.342C821.74 129.175 823.975 126.336 827.168 124.95C829.932 123.722 833.791 123.505 836.741 123.166V122.501C836.741 121.281 836.834 119.836 836.118 118.782C835.502 117.836 834.314 117.446 833.261 117.446C831.321 117.446 829.595 118.45 829.173 120.53C829.087 120.992 828.75 121.447 828.285 121.469L823.352 120.934C822.936 120.84 822.471 120.501 822.592 119.858C823.724 113.82 829.137 112 833.977 112C836.455 112 839.691 112.665 841.646 114.557C844.123 116.89 843.887 120.002 843.887 123.39V131.392C843.887 133.797 844.875 134.852 845.806 136.152C846.128 136.614 846.2 137.17 845.784 137.516C844.746 138.39 842.899 140.015 841.882 140.925L841.875 140.911Z" fill="#F1F1F1" fill-opacity="0.8"/>
<path fill-rule="evenodd" clip-rule="evenodd" d="M770.001 128.395C770.001 130.395 770.051 132.064 769.048 133.84C768.239 135.285 766.958 136.173 765.526 136.173C763.571 136.173 762.432 134.671 762.432 132.454C762.432 128.077 766.32 127.283 770.001 127.283V128.395ZM775.135 140.911C774.798 141.214 774.311 141.236 773.932 141.034C772.242 139.618 771.941 138.961 771.01 137.61C768.218 140.485 766.242 141.344 762.619 141.344C758.337 141.344 755 138.679 755 133.342C755 129.175 757.241 126.336 760.427 124.95C763.191 123.722 767.051 123.505 770.001 123.166V122.501C770.001 121.281 770.094 119.836 769.385 118.782C768.762 117.836 767.573 117.446 766.528 117.446C764.588 117.446 762.855 118.45 762.432 120.53C762.346 120.992 762.01 121.447 761.552 121.469L756.611 120.934C756.196 120.84 755.738 120.501 755.852 119.858C756.991 113.82 762.397 112 767.237 112C769.714 112 772.951 112.665 774.905 114.557C777.383 116.89 777.147 120.002 777.147 123.39V131.392C777.147 133.797 778.135 134.851 779.066 136.151C779.395 136.614 779.466 137.17 779.051 137.516C778.013 138.39 776.166 140.015 775.149 140.925L775.135 140.911Z" fill="#F1F1F1" fill-opacity="0.8"/>
<path d="M532.286 135.744C532.286 143.795 525.96 149.727 518.198 149.727C510.436 149.727 504.111 143.795 504.111 135.744C504.111 127.637 510.436 121.761 518.198 121.761C525.96 121.761 532.286 127.637 532.286 135.744ZM526.119 135.744C526.119 130.713 522.453 127.271 518.198 127.271C513.943 127.271 510.278 130.713 510.278 135.744C510.278 140.724 513.943 144.217 518.198 144.217C522.453 144.217 526.119 140.718 526.119 135.744Z" fill="#F1F1F1" fill-opacity="0.8"/>
<path d="M562.677 135.744C562.677 143.795 556.351 149.727 548.589 149.727C540.827 149.727 534.502 143.795 534.502 135.744C534.502 127.643 540.827 121.761 548.589 121.761C556.351 121.761 562.677 127.637 562.677 135.744ZM556.509 135.744C556.509 130.713 552.844 127.271 548.589 127.271C544.334 127.271 540.669 130.713 540.669 135.744C540.669 140.724 544.334 144.217 548.589 144.217C552.844 144.217 556.509 140.718 556.509 135.744Z" fill="#F1F1F1" fill-opacity="0.8"/>
<path d="M591.8 122.606V147.71C591.8 158.036 585.684 162.254 578.454 162.254C571.648 162.254 567.551 157.721 566.006 154.014L571.375 151.789C572.332 154.064 574.674 156.75 578.448 156.75C583.076 156.75 585.944 153.907 585.944 148.554V146.543H585.729C584.348 148.239 581.689 149.721 578.334 149.721C571.312 149.721 564.879 143.631 564.879 135.794C564.879 127.901 571.312 121.761 578.334 121.761C581.683 121.761 584.342 123.242 585.729 124.888H585.944V122.612H591.8V122.606ZM586.381 135.794C586.381 130.871 583.082 127.271 578.885 127.271C574.63 127.271 571.065 130.871 571.065 135.794C571.065 140.668 574.63 144.217 578.885 144.217C583.082 144.217 586.381 140.668 586.381 135.794Z" fill="#F1F1F1" fill-opacity="0.8"/>
<path d="M601.456 107.891V148.87H595.441V107.891H601.456Z" fill="#F1F1F1" fill-opacity="0.8"/>
<path d="M624.895 140.346L629.681 143.524C628.136 145.799 624.413 149.721 617.981 149.721C610.003 149.721 604.045 143.58 604.045 135.738C604.045 127.422 610.054 121.755 617.291 121.755C624.578 121.755 628.142 127.529 629.307 130.65L629.947 132.239L611.175 139.981C612.612 142.786 614.847 144.217 617.981 144.217C621.121 144.217 623.299 142.679 624.895 140.346ZM610.161 135.315L622.71 130.127C622.02 128.381 619.943 127.164 617.499 127.164C614.365 127.164 610.003 129.919 610.161 135.315Z" fill="#F1F1F1" fill-opacity="0.8"/>
<path d="M481.343 132.106V126.174H501.42C501.617 127.208 501.718 128.431 501.718 129.755C501.718 134.206 500.496 139.71 496.558 143.631C492.727 147.603 487.833 149.721 481.35 149.721C469.333 149.721 459.228 139.974 459.228 128.009C459.228 116.043 469.333 106.296 481.35 106.296C487.998 106.296 492.734 108.894 496.292 112.279L492.088 116.465C489.536 114.082 486.079 112.229 481.343 112.229C472.568 112.229 465.705 119.271 465.705 128.009C465.705 136.746 472.568 143.788 481.343 143.788C487.035 143.788 490.277 141.513 492.354 139.445C494.038 137.768 495.146 135.372 495.583 132.1L481.343 132.106Z" fill="#F1F1F1" fill-opacity="0.8"/>
<path d="M40.7998 107.267V112.336C40.7998 112.667 40.5798 112.887 40.2503 112.887H18.5403V123.245H36.458C36.7877 123.245 37.0076 123.466 37.0076 123.796V128.865C37.0076 129.196 36.7877 129.416 36.458 129.416H18.5403V144.733C18.5403 145.064 18.3207 145.284 17.9907 145.284H12.5493C12.2196 145.284 12 145.064 12 144.733V107.267C12 106.937 12.2196 106.716 12.5493 106.716H40.2503C40.5798 106.716 40.7998 106.937 40.7998 107.267Z" fill="#F1F1F1" fill-opacity="0.8"/>
<path d="M73.5837 128.975C71.5778 123.41 69.3518 117.846 67.0705 112.777H65.7792C63.4984 117.846 61.2447 123.41 59.2385 128.975H73.5837ZM85.0986 145.284H79.1074C78.7779 145.284 78.5579 145.118 78.4756 144.788C77.6784 141.62 76.7171 138.286 75.6176 134.925H57.2323C56.1334 138.286 55.1716 141.62 54.4021 144.788C54.3198 145.118 54.0997 145.284 53.77 145.284H47.9991C47.6145 145.284 47.3942 145.064 47.5042 144.678C50.9669 132.391 56.2434 118.837 61.5745 107.432C61.8219 106.909 62.1245 106.716 62.6466 106.716H70.4508C70.9729 106.716 71.2755 106.909 71.5229 107.432C76.9092 118.81 82.1028 132.391 85.5929 144.678C85.7032 145.064 85.4832 145.284 85.0986 145.284Z" fill="#F1F1F1" fill-opacity="0.8"/>
<path d="M94.9353 126.331C94.9353 114.374 102.795 106 114.007 106H114.831C121.867 106 127.308 109.581 130.193 114.76C130.386 115.091 130.331 115.366 130.001 115.532L125.165 117.928C124.835 118.093 124.422 118.093 124.203 117.68C122.169 114.154 119.119 112.281 114.612 112.281H113.787C106.725 112.281 101.86 117.901 101.86 126.055C101.86 134.237 106.642 139.719 113.787 139.719H114.612C119.229 139.719 121.921 138.149 123.983 135.752C124.258 135.449 124.56 135.394 124.89 135.559L129.864 137.983C130.056 138.094 130.138 138.231 130.138 138.369C130.138 138.507 130.083 138.617 129.974 138.782C126.923 143.245 121.427 146 114.722 146H113.897C102.493 146 94.9353 138.149 94.9353 126.331Z" fill="#F1F1F1" fill-opacity="0.8"/>
<path d="M173.97 139.664V144.733C173.97 145.064 173.75 145.284 173.42 145.284H144.565C144.235 145.284 144.015 145.064 144.015 144.733V107.267C144.015 106.937 144.235 106.716 144.565 106.716H172.925C173.255 106.716 173.475 106.937 173.475 107.267V112.336C173.475 112.667 173.255 112.887 172.925 112.887H150.555V122.914H168.748C169.078 122.914 169.298 123.135 169.298 123.466V128.479C169.298 128.81 169.078 129.03 168.748 129.03H150.555V139.113H173.42C173.75 139.113 173.97 139.333 173.97 139.664Z" fill="#F1F1F1" fill-opacity="0.8"/>
<path d="M216.949 134.126C216.949 130.545 214.585 128.92 209.391 128.92H196.448V139.278H209.391C214.668 139.278 216.949 137.735 216.949 134.126ZM207.55 112.722H196.448V123.08H207.55C212.524 123.08 214.805 121.454 214.805 117.901C214.805 114.347 212.524 112.722 207.55 112.722ZM223.654 134.705C223.654 141.455 218.487 145.284 209.363 145.284H190.457C190.127 145.284 189.907 145.064 189.907 144.733V107.267C189.907 106.937 190.127 106.716 190.457 106.716H207.688C216.564 106.716 221.4 110.242 221.4 116.689C221.4 120.931 219.257 123.714 214.915 125.008C221.016 126.303 223.654 129.967 223.654 134.705Z" fill="#F1F1F1" fill-opacity="0.8"/>
<path d="M255.778 139.719C263.664 139.719 268.64 134.292 268.64 126C268.64 117.708 263.664 112.281 255.778 112.281H254.952C247.066 112.281 242.092 117.708 242.092 126C242.092 134.292 247.066 139.719 254.952 139.719H255.778ZM235.167 126C235.167 114.374 242.862 106 254.952 106H255.778C267.868 106 275.564 114.374 275.564 126C275.564 137.625 267.868 146 255.778 146H254.952C242.862 146 235.167 137.625 235.167 126Z" fill="#F1F1F1" fill-opacity="0.8"/>
<path d="M307.33 139.719C315.219 139.719 320.193 134.292 320.193 126C320.193 117.708 315.219 112.281 307.33 112.281H306.507C298.618 112.281 293.646 117.708 293.646 126C293.646 134.292 298.618 139.719 306.507 139.719H307.33ZM286.719 126C286.719 114.374 294.414 106 306.507 106H307.33C319.422 106 327.117 114.374 327.117 126C327.117 137.625 319.422 146 307.33 146H306.507C294.414 146 286.719 137.625 286.719 126Z" fill="#F1F1F1" fill-opacity="0.8"/>
<path d="M374.521 145.284H367.43C366.964 145.284 366.77 145.173 366.468 144.815C361.494 138.948 355.614 133.108 350.613 128.81H347.423V144.733C347.423 145.064 347.204 145.284 346.874 145.284H341.432C341.103 145.284 340.884 145.064 340.884 144.733V107.267C340.884 106.937 341.103 106.716 341.432 106.716H346.874C347.204 106.716 347.423 106.937 347.423 107.267V122.474H350.665C356.027 117.625 360.973 112.391 365.013 107.129C365.285 106.771 365.507 106.716 365.836 106.716H372.542C372.872 106.716 373.038 106.881 373.038 107.102C373.038 107.212 372.98 107.35 372.844 107.515C366.936 114.815 361.081 120.793 355.67 125.421C362.483 131.206 368.943 137.653 374.823 144.595C375.125 144.953 374.961 145.284 374.521 145.284Z" fill="#F1F1F1" fill-opacity="0.8"/>
</svg>
